<svg id="Group_2932" data-name="Group 2932" xmlns="http://www.w3.org/2000/svg" width="16.2" height="17.969" viewBox="0 0 16.2 17.969">
  <path id="Path_13305" data-name="Path 13305" d="M-3383.858-645.838c5.5,1.177,5.334,9.318-.265,10.1a4.9,4.9,0,0,1-4.982-2.152.549.549,0,0,0-.505-.266c-1.41.01-2.82.007-4.229,0a2,2,0,0,1-2.182-2.169q-.008-5.549,0-11.1a2.01,2.01,0,0,1,2.184-2.172c1.26.154,5.708-.371,6.291.32.737,1.012,3.691,3.4,3.695,4.333C-3383.868-647.914-3383.858-646.893-3383.858-645.838Zm-4.528-6.994c-1.816,0-3.6,0-5.413,0a1.284,1.284,0,0,0-1.474,1.471q0,5.491,0,10.982a1.285,1.285,0,0,0,1.47,1.477c1.384-.015,2.746.043,4.132-.028a5.536,5.536,0,0,1-.223-3.069h-2.783c-.286.01-.7.017-.695-.36-.007-.27.181-.378.438-.378.983,0,1.966,0,2.949,0,.578.037.638-.739.957-1.16-1.375,0-2.626.009-3.943-.005a.373.373,0,1,1,.015-.744c1.371-.007,2.742-.012,4.113,0,.842.036,1.4-.771,2.187-.95.645-.2,1.323-.3,2.012-.445v-2.8C-3388.48-648.664-3388.477-649.206-3388.386-652.831Zm3.478,16.419c5.739-.081,5.75-8.63.035-8.775C-3390.611-645.1-3390.687-636.534-3384.908-636.412Zm-.219-13.2-2.508-2.646C-3387.69-649.635-3387.853-649.489-3385.127-649.607Z" transform="translate(3396.026 653.636)"/>
  <path id="Path_13306" data-name="Path 13306" d="M-3379.451-643.28c-.093,3.633-.087,4.166,3.742,3.988v2.8c-.689.147-1.367.244-2.012.445-.79.179-1.345.986-2.187.95-1.371-.016-2.742-.01-4.113,0a.373.373,0,1,0-.015.744c1.317.014,2.569,0,3.943.005-.318.42-.381,1.2-.957,1.16-.983.007-1.966,0-2.949,0-.257,0-.444.108-.437.378,0,.377.408.37.695.36h2.782a5.538,5.538,0,0,0,.223,3.069c-1.385.071-2.748.013-4.132.028a1.285,1.285,0,0,1-1.47-1.477q0-5.491,0-10.982a1.284,1.284,0,0,1,1.474-1.471C-3383.052-643.282-3381.268-643.28-3379.451-643.28Zm-2.732,6.3c-.489.106-2.313-.308-2.252.389,0,.3.246.362.5.362q1.745,0,3.49,0c.252,0,.488-.063.485-.372C-3379.906-637.276-3381.706-636.872-3382.183-636.975Z" transform="translate(3387.092 644.085)" fill="#fff"/>
  <path id="Path_13307" data-name="Path 13307" d="M-3303.911-536.024c-5.78-.123-5.7-8.688.036-8.775C-3298.16-544.653-3298.173-536.1-3303.911-536.024Zm.379-5.8.094-.029c.39.277,1.541,2.071,1.937,1.576.221-.2.155-.411-.028-.608q-1.017-1.093-2.031-2.188a.41.41,0,0,0-.691-.013q-1.027,1.109-2.056,2.218c-.172.185-.224.393-.025.581.472.529,1.545-1.351,2.06-1.6,0,1.288,0,2.512,0,3.792,0,.271,0,.56.362.569s.377-.281.378-.552Q-3303.531-539.952-3303.532-541.827Z" transform="translate(3315.03 553.248)" fill="#aed4ff"/>
  <path id="Path_13308" data-name="Path 13308" d="M-3285.694-633.179c-2.73.119-2.562-.033-2.508-2.646Z" transform="translate(3296.593 637.208)" fill="#aed4ff"/>
  <path id="Path_13309" data-name="Path 13309" d="M-3359.567-562.387c.484.1,2.27-.3,2.222.377,0,.31-.233.372-.485.372q-1.745,0-3.49,0c-.253,0-.495-.062-.5-.362C-3361.873-562.7-3360.057-562.278-3359.567-562.387Z" transform="translate(3364.476 569.496)"/>
  <path id="Path_13310" data-name="Path 13310" d="M-3282.7-523.677q0,1.875,0,3.749c0,.27-.014.561-.378.552s-.362-.3-.362-.569c0-1.281,0-2.5,0-3.792-.516.249-1.591,2.127-2.06,1.6-.2-.188-.146-.4.025-.581q1.027-1.11,2.056-2.218a.41.41,0,0,1,.691.013q1.012,1.1,2.031,2.188c.183.2.249.411.029.608-.394.5-1.552-1.3-1.937-1.576Z" transform="translate(3294.195 535.098)"/>
</svg>
