<svg xmlns="http://www.w3.org/2000/svg" width="119.285" height="135.649" viewBox="0 0 119.285 135.649">
  <g id="Group_2945" data-name="Group 2945" transform="translate(2845.674 903.439)" opacity="0.03">
    <path id="Path_13312" data-name="Path 13312" d="M-2727.6-767.79H-2762.5c-.9-.653-1.638-1.4-1.19-2.638.441-1.214,1.463-1.4,2.594-1.338.264.016.529,0,.793,0h29.863v-105.1h-7.2v54.24c0,.353.01.707,0,1.059-.05,1.352-.792,2.187-1.951,2.2a1.98,1.98,0,0,1-2.008-2.143c-.017-.4,0-.794,0-1.192V-888.1h-7.271v1.9q0,46.427,0,92.854c0,2.518-.521,3.04-3,3.04h-67.952v7.22h78.227V-784.6q0-13.577,0-27.154c0-1.594.682-2.46,1.917-2.5,1.3-.039,2.041.856,2.044,2.5.008,3.841,0,7.683,0,11.524q0,9.272,0,18.544c0,1.952-.653,2.6-2.616,2.643-.4.009-.793,0-1.189,0h-67.093v7.269h1.665q17.651,0,35.3-.009c1.13,0,2.151.128,2.595,1.343.451,1.236-.292,1.984-1.187,2.64h-41.254a3.3,3.3,0,0,1-1.208-3.011c.06-2.074.016-4.15.016-6.226v-2.006c-2.969,0-5.7.01-8.424,0-2.216-.01-2.81-.62-2.812-2.843,0-2.769,0-5.538,0-8.434-2.366,0-4.6.024-6.838,0a15.3,15.3,0,0,1-14.065-10.042c-1.05-2.858-.906-5.816-.912-8.768-.007-2.713.455-3.172,3.129-3.172h7.446v-2.026q0-42.985-.016-85.97a3.467,3.467,0,0,1,1.207-3.144h83.83a3.306,3.306,0,0,1,1.208,3.01c-.058,2.337.028,4.677-.037,7.014-.028.992.288,1.3,1.274,1.273,2.553-.061,5.108-.04,7.662-.011,1.626.018,2.3.727,2.318,2.369.016,1.191,0,2.382,0,3.574v5.291h8.243c2.48,0,3,.519,3,3.039q0,53.54.017,107.08A3.4,3.4,0,0,1-2727.6-767.79Zm-25.335-131.565h-78.108V-812.3h29.8c.4,0,.795-.021,1.189.01a1.954,1.954,0,0,1,1.945,1.937,1.963,1.963,0,0,1-2,2.018c-.395.027-.793.008-1.189.008H-2841.7c0,.98-.02,1.81,0,2.639.192,6.732,4.951,11.394,11.679,11.4q27.233.017,54.465,0h.881c-1.214-2.185-2.733-4.209-3.493-6.487-.777-2.33-.81-4.909-1.194-7.554h-1.217c-3.217,0-6.433.006-9.65,0-1.649,0-2.549-.738-2.524-2.027.023-1.234.9-1.939,2.473-1.942q6.345-.012,12.691,0c1.8,0,2.478.667,2.517,2.457.037,1.721-.03,3.447.084,5.162.34,5.082,4.051,9.544,9.076,10.076,4.254.451,8.594.093,12.976.093Z" transform="translate(0)"/>
    <path id="Path_13315" data-name="Path 13315" d="M-2774.832-866.692q6.012,0,12.024,0c1.96,0,2.624.644,2.626,2.611q.017,12.113,0,24.226c0,1.892-.686,2.566-2.538,2.567q-12.156.01-24.313,0c-1.784,0-2.486-.68-2.489-2.479q-.023-12.245,0-24.491c0-1.778.714-2.428,2.533-2.432C-2782.937-866.7-2778.884-866.692-2774.832-866.692Zm10.646,4.081h-21.293v21.246h21.293Z" transform="translate(-36.308 -23.765)"/>
    <path id="Path_13316" data-name="Path 13316" d="M-2755.6-686.71q15.46,0,30.921,0a5.971,5.971,0,0,1,1.316.053,1.846,1.846,0,0,1,1.575,1.858,1.863,1.863,0,0,1-1.561,2,5.575,5.575,0,0,1-1.315.057q-30.922,0-61.843,0a6.474,6.474,0,0,1-1.187-.031,1.868,1.868,0,0,1-1.7-2.015,1.848,1.848,0,0,1,1.687-1.893,7.483,7.483,0,0,1,1.319-.034Q-2770.993-686.711-2755.6-686.71Z" transform="translate(-36.399 -140.162)"/>
    <path id="Path_13317" data-name="Path 13317" d="M-2687.674-720.449c5.5,0,11.007-.011,16.51.016.593,0,1.4.027,1.725.388a2.612,2.612,0,0,1,.749,2.015,2.866,2.866,0,0,1-1.708,1.485,8.047,8.047,0,0,1-2.49.07h-31.04c-.352,0-.705.013-1.057-.005a1.973,1.973,0,0,1-2.094-2.052,1.937,1.937,0,0,1,2.1-1.905c2.686-.031,5.371-.011,8.057-.012Z" transform="translate(-89.636 -118.344)"/>
    <path id="Path_13318" data-name="Path 13318" d="M-2724.154-753.449h13.6c.352,0,.706-.018,1.056.008a1.957,1.957,0,0,1,1.978,2.032,1.919,1.919,0,0,1-1.956,1.916c-1.583.053-3.169.018-4.754.018H-2737.6c-.308,0-.617.008-.924,0-1.422-.045-2.272-.822-2.241-2.041a1.975,1.975,0,0,1,2.219-1.924c2.817-.022,5.635-.007,8.452-.007Z" transform="translate(-67.848 -97.002)"/>
    <path id="Path_13319" data-name="Path 13319" d="M-2674.877-856.949h13.47c.353,0,.706-.018,1.057.008a1.957,1.957,0,0,1,1.977,2.033,1.916,1.916,0,0,1-1.956,1.915c-1.671.052-3.345.018-5.018.018h-22.847c-.308,0-.617.008-.925,0-1.422-.046-2.272-.822-2.24-2.041a1.975,1.975,0,0,1,2.219-1.923c2.861-.022,5.723-.007,8.584-.007Z" transform="translate(-99.803 -30.064)"/>
    <path id="Path_13320" data-name="Path 13320" d="M-2674.868-826.728c-4.71,0-9.421-.007-14.131,0-1.128,0-2.007-.343-2.3-1.53-.34-1.362.588-2.427,2.159-2.441,2.905-.026,5.811-.008,8.716-.008q9.772,0,19.545-.007c1.163,0,2.119.268,2.436,1.53.351,1.4-.618,2.441-2.291,2.446C-2665.448-826.719-2670.158-826.728-2674.868-826.728Z" transform="translate(-99.795 -47.038)"/>
    <path id="Path_13321" data-name="Path 13321" d="M-2674.87-800.478c-4.71,0-9.42-.007-14.131,0-1.128,0-2.007-.345-2.3-1.532-.339-1.363.589-2.425,2.161-2.439,2.993-.025,5.987-.008,8.98-.008q9.64,0,19.281-.007c1.164,0,2.119.27,2.434,1.532.35,1.4-.62,2.439-2.293,2.444C-2665.449-800.469-2670.16-800.478-2674.87-800.478Z" transform="translate(-99.795 -64.015)"/>
    <path id="Path_13322" data-name="Path 13322" d="M-2777.975-716.468c-3.126,0-6.251.006-9.376,0-1.616,0-2.555-.777-2.52-2.04.034-1.218.932-1.927,2.5-1.929q9.442-.009,18.885,0c1.643,0,2.542.747,2.507,2.037-.033,1.235-.906,1.927-2.483,1.932C-2771.636-716.462-2774.806-716.468-2777.975-716.468Z" transform="translate(-36.09 -118.351)"/>
    <path id="Path_13323" data-name="Path 13323" d="M-2756.759-855.135v21.246h-21.293v-21.246Z" transform="translate(-43.735 -31.241)" fill="#fff"/>
  </g>
</svg>
