<svg xmlns="http://www.w3.org/2000/svg" width="14.606" height="19.451" viewBox="0 0 14.606 19.451">
  <g id="Group_3435" data-name="Group 3435" transform="translate(287.141 979.377)">
    <path id="Path_15640" data-name="Path 15640" d="M-274.969-976.955c.318,0,.6-.014.874,0a1.62,1.62,0,0,1,1.558,1.694q.005,3.117,0,6.234,0,3.637,0,7.273a1.647,1.647,0,0,1-1.813,1.824h-10.974a1.643,1.643,0,0,1-1.811-1.8c0-4.477.009-8.955-.008-13.432a1.771,1.771,0,0,1,1.444-1.792c1.176-.248,2.328-.615,3.489-.935,1.721-.474,3.439-.964,5.164-1.424a1.594,1.594,0,0,1,2.075,1.621C-274.968-977.455-274.969-977.22-274.969-976.955Zm-11.352,8.521q0,3.358,0,6.715c0,.691.293.98.989.98h11c.695,0,.987-.291.987-.983q0-6.715,0-13.43c0-.708-.288-.994-1-.994h-10.972c-.711,0-1,.287-1,1Q-286.321-971.792-286.321-968.434Zm10.54-8.534c0-.239,0-.449,0-.659a.818.818,0,0,0-1.158-.878c-1.435.4-2.873.795-4.309,1.193-.369.1-.737.208-1.105.313l.011.032Z" transform="translate(0)"/>
    <path id="Path_15641" data-name="Path 15641" d="M-253.787-973.223h-6.561l-.011-.032c.368-.1.736-.211,1.105-.313,1.436-.4,2.873-.791,4.309-1.193a.818.818,0,0,1,1.158.878C-253.787-973.673-253.787-973.462-253.787-973.223Z" transform="translate(-21.994 -3.744)" fill="#aed4ff"/>
    <path id="Path_15642" data-name="Path 15642" d="M-266.772-943.31a4.474,4.474,0,0,1-4.456-4.47,4.477,4.477,0,0,1,4.48-4.448,4.477,4.477,0,0,1,4.443,4.485A4.475,4.475,0,0,1-266.772-943.31Zm-1.179-4.04c.008.174.01.333.025.491a5.729,5.729,0,0,0,.565,2.16c.131.25.266.56.59.565s.466-.307.594-.557a6.1,6.1,0,0,0,.595-2.659Zm2.345-.842c0-.173.013-.333,0-.49a5.523,5.523,0,0,0-.612-2.248c-.366-.646-.755-.66-1.081,0a7.876,7.876,0,0,0-.52,1.544,9.229,9.229,0,0,0-.149,1.191Zm-3.189,0a8.474,8.474,0,0,1,.654-2.932,3.48,3.48,0,0,0-2.189,2.932Zm3.441-2.906a9.1,9.1,0,0,1,.615,2.9h1.578A3.587,3.587,0,0,0-265.353-951.094Zm-2.824,6.655a8.931,8.931,0,0,1-.615-2.9h-1.581A3.6,3.6,0,0,0-268.177-944.439Zm2.778.026a3.548,3.548,0,0,0,2.213-2.939h-1.553A8.293,8.293,0,0,1-265.4-944.413Z" transform="translate(-13.068 -22.295)"/>
    <path id="Path_15643" data-name="Path 15643" d="M-267.275-896.856h-3.852c-.408,0-.611-.14-.6-.412s.2-.4.6-.4q3.865,0,7.729,0a1.471,1.471,0,0,1,.277.023.353.353,0,0,1,.306.377.365.365,0,0,1-.323.39,1.641,1.641,0,0,1-.3.016h-3.827Z" transform="translate(-12.656 -67.105)"/>
    <path id="Path_15644" data-name="Path 15644" d="M-259.837-887.827h-2.15c-.059,0-.118,0-.177,0-.321-.011-.515-.161-.519-.4s.2-.415.531-.42c.4-.006.809,0,1.214,0h3.314c.409,0,.607.133.612.408s-.191.414-.6.415Z" transform="translate(-20.085 -74.507)"/>
    <path id="Path_15645" data-name="Path 15645" d="M-252.9-924.935h2.369a6.1,6.1,0,0,1-.595,2.659c-.129.25-.265.562-.594.557s-.459-.315-.59-.565a5.728,5.728,0,0,1-.565-2.16C-252.886-924.6-252.888-924.761-252.9-924.935Z" transform="translate(-28.123 -44.71)" fill="#aed4ff"/>
    <path id="Path_15646" data-name="Path 15646" d="M-250.639-944.468H-253a9.229,9.229,0,0,1,.149-1.191,7.878,7.878,0,0,1,.52-1.544c.326-.663.715-.648,1.081,0a5.522,5.522,0,0,1,.612,2.248C-250.627-944.8-250.639-944.641-250.639-944.468Z" transform="translate(-28.035 -26.018)" fill="#aed4ff"/>
    <path id="Path_15647" data-name="Path 15647" d="M-264.666-943.1H-266.2a3.48,3.48,0,0,1,2.189-2.932A8.474,8.474,0,0,0-264.666-943.1Z" transform="translate(-17.197 -27.388)" fill="#aed4ff"/>
    <path id="Path_15648" data-name="Path 15648" d="M-238.364-945.883a3.587,3.587,0,0,1,2.193,2.9h-1.578A9.1,9.1,0,0,0-238.364-945.883Z" transform="translate(-40.057 -27.506)" fill="#aed4ff"/>
    <path id="Path_15649" data-name="Path 15649" d="M-264.249-921.994a3.6,3.6,0,0,1-2.2-2.9h1.581A8.93,8.93,0,0,0-264.249-921.994Z" transform="translate(-16.996 -44.74)" fill="#aed4ff"/>
    <path id="Path_15650" data-name="Path 15650" d="M-238.621-922.01a8.293,8.293,0,0,0,.659-2.939h1.553A3.548,3.548,0,0,1-238.621-922.01Z" transform="translate(-39.846 -44.698)" fill="#aed4ff"/>
  </g>
</svg>
