<svg xmlns="http://www.w3.org/2000/svg" width="18.038" height="20.618" viewBox="0 0 18.038 20.618">
  <g id="Group_3436" data-name="Group 3436" transform="translate(-240.818 1524.196)">
    <path id="Path_15651" data-name="Path 15651" d="M244.025-1522.907c.057-.882.35-1.27.946-1.288s.906.346,1.023,1.274h7.683c.125-.933.416-1.292,1.022-1.274s.895.411.947,1.288c.1,0,.2,0,.307,0a13.719,13.719,0,0,1,1.631.057,1.528,1.528,0,0,1,1.27,1.512c0,.072,0,.143,0,.215q0,7.879,0,15.758a1.627,1.627,0,0,1-1.8,1.787H242.589a1.621,1.621,0,0,1-1.772-1.761q0-7.906,0-15.811a1.615,1.615,0,0,1,1.746-1.757Zm10.322,16.753c0-.767,0-1.491,0-2.216a1.6,1.6,0,0,1,1.637-1.65c.653,0,1.306,0,1.959,0h.247v-9.008H241.46v.3q0,5.718,0,11.436a.992.992,0,0,0,1.134,1.134h11.752Zm-12.885-13.55h16.747c0-.571.018-1.126-.006-1.678a.9.9,0,0,0-.84-.868c-.568-.034-1.139-.008-1.705-.008-.112.908-.371,1.276-.944,1.27a1.268,1.268,0,0,1-.642-.209,1.1,1.1,0,0,1-.377-1.049h-7.71c-.065.85-.324,1.235-.892,1.256a1.254,1.254,0,0,1-.652-.18c-.4-.239-.416-.671-.409-1.1h-1.453c-.072,0-.143,0-.215,0a.946.946,0,0,0-.9.9C241.447-1520.814,241.462-1520.268,241.462-1519.7Zm16.751,10.858-.079-.047a1.935,1.935,0,0,1-.162.213c-.966.97-1.938,1.934-2.9,2.908a.816.816,0,0,1-.635.267q-5.65-.012-11.3-.006a2.537,2.537,0,0,1-1.678-.325v.424c0,.847.342,1.191,1.185,1.191h14.413c.794,0,1.154-.356,1.154-1.142q0-1.477,0-2.953Zm-3.22,2.161,2.687-2.681c-.624,0-1.256-.031-1.884.011a.88.88,0,0,0-.8.849C254.975-1507.9,254.993-1507.293,254.993-1506.685Zm-10.311-15.91c0,.205,0,.411,0,.616a.312.312,0,0,0,.319.352.311.311,0,0,0,.323-.349c.006-.4,0-.8,0-1.205,0-.219-.107-.371-.334-.365-.21.006-.311.15-.31.361S244.682-1522.791,244.682-1522.595Zm10.308.016c0-.214.008-.429,0-.643a.3.3,0,0,0-.32-.323.3.3,0,0,0-.319.324c-.007.42-.005.839,0,1.259a.306.306,0,0,0,.307.337.309.309,0,0,0,.334-.337C255-1522.168,254.99-1522.374,254.99-1522.579Z" transform="translate(0 0)"/>
    <path id="Path_15652" data-name="Path 15652" d="M252.727-1485.7c0-.565-.015-1.11,0-1.654a.947.947,0,0,1,.9-.9c.071-.005.143,0,.215,0H255.3c-.006.424.009.855.409,1.1a1.253,1.253,0,0,0,.651.18c.568-.021.826-.407.892-1.257h7.71a1.1,1.1,0,0,0,.377,1.049,1.267,1.267,0,0,0,.642.209c.573.006.832-.362.944-1.27.566,0,1.138-.026,1.705.008a.9.9,0,0,1,.84.867c.024.552.006,1.107.006,1.678Zm8.357-.95h2.227c.219,0,.369-.095.364-.331,0-.22-.149-.31-.357-.31H258.89a.322.322,0,0,0-.361.251c-.053.225.1.39.381.391C259.635-1486.643,260.36-1486.645,261.084-1486.646Z" transform="translate(-11.265 -34.008)" fill="#aed4ff"/>
    <path id="Path_15654" data-name="Path 15654" d="M504.778-1245.44c0-.608-.018-1.216.006-1.821a.88.88,0,0,1,.8-.849c.628-.042,1.26-.011,1.884-.011Z" transform="translate(-249.785 -261.245)" fill="#aed4ff"/>
    <path id="Path_15655" data-name="Path 15655" d="M312.791-1511.119c0-.2,0-.393,0-.589s.1-.354.31-.361c.227-.007.333.146.334.365,0,.4,0,.8,0,1.205a.311.311,0,0,1-.323.349c-.21,0-.316-.143-.319-.353S312.791-1510.914,312.791-1511.119Z" transform="translate(-68.109 -11.476)" fill="#fff"/>
    <path id="Path_15656" data-name="Path 15656" d="M493.436-1511.12c0,.205.007.411,0,.616a.309.309,0,0,1-.334.338.306.306,0,0,1-.307-.337c0-.42-.006-.84,0-1.259a.3.3,0,0,1,.319-.324.3.3,0,0,1,.32.324C493.444-1511.549,493.436-1511.334,493.436-1511.12Z" transform="translate(-238.446 -11.46)" fill="#fff"/>
    <path id="Path_15657" data-name="Path 15657" d="M278.061-1404.178c.205,0,.411,0,.616,0a.635.635,0,0,1,.656.636c.011.438.012.875,0,1.313a.627.627,0,0,1-.64.624q-.643.014-1.286,0a.634.634,0,0,1-.643-.648c-.008-.42-.007-.839,0-1.259a.642.642,0,0,1,.682-.665C277.65-1404.181,277.855-1404.178,278.061-1404.178Zm-.644.653v1.264h1.259v-1.264Z" transform="translate(-34.01 -113.574)"/>
    <path id="Path_15658" data-name="Path 15658" d="M350.051-1404.185c.206,0,.411,0,.616,0a.639.639,0,0,1,.668.652c.008.429.01.858,0,1.286a.627.627,0,0,1-.63.634q-.656.016-1.313,0a.63.63,0,0,1-.627-.636c-.009-.429-.008-.858,0-1.287a.634.634,0,0,1,.643-.648C349.622-1404.191,349.837-1404.185,350.051-1404.185Zm.63,1.921v-1.262h-1.257v1.262Z" transform="translate(-102.147 -113.567)"/>
    <path id="Path_15659" data-name="Path 15659" d="M420.814-1402.959c0-.205-.005-.411,0-.617a.633.633,0,0,1,.645-.647q.643-.012,1.286,0a.632.632,0,0,1,.641.651c.008.42.007.84,0,1.26a.636.636,0,0,1-.658.661c-.42.007-.84.008-1.26,0a.637.637,0,0,1-.655-.665C420.81-1402.531,420.814-1402.745,420.814-1402.959Zm.653.654h1.264v-1.259h-1.264Z" transform="translate(-170.333 -113.527)"/>
    <path id="Path_15660" data-name="Path 15660" d="M495.385-1402.932c0,.206,0,.411,0,.617a.642.642,0,0,1-.67.678q-.616.009-1.233,0a.639.639,0,0,1-.671-.676c0-.411-.005-.822,0-1.233a.634.634,0,0,1,.655-.664q.63-.01,1.26,0a.638.638,0,0,1,.659.661C495.389-1403.343,495.385-1403.137,495.385-1402.932Zm-1.914-.624v1.257h1.258v-1.257Z" transform="translate(-238.462 -113.541)"/>
    <path id="Path_15661" data-name="Path 15661" d="M278.015-1329.626c-.214,0-.429.007-.643,0a.633.633,0,0,1-.632-.632q-.015-.656,0-1.313a.624.624,0,0,1,.636-.626c.429-.009.858-.009,1.286,0a.631.631,0,0,1,.647.645q.015.643,0,1.286a.636.636,0,0,1-.651.641C278.444-1329.62,278.23-1329.626,278.015-1329.626Zm-.619-1.927v1.266h1.252v-1.266Z" transform="translate(-33.987 -181.685)"/>
    <path id="Path_15662" data-name="Path 15662" d="M350.052-1332.162c.206,0,.411,0,.616,0a.638.638,0,0,1,.668.652c.008.429.01.858,0,1.286a.628.628,0,0,1-.631.634q-.656.016-1.313,0a.629.629,0,0,1-.627-.637c-.009-.429-.008-.858,0-1.287a.636.636,0,0,1,.644-.648C349.623-1332.168,349.838-1332.162,350.052-1332.162Zm.625,1.92v-1.257h-1.258v1.257Z" transform="translate(-102.147 -181.724)"/>
    <path id="Path_15663" data-name="Path 15663" d="M422.082-1332.163c.214,0,.429-.006.643,0a.636.636,0,0,1,.643.649c.008.42.007.84,0,1.26a.637.637,0,0,1-.655.664q-.63.011-1.26,0a.637.637,0,0,1-.657-.663c-.007-.411-.006-.822,0-1.233a.64.64,0,0,1,.669-.677C421.671-1332.167,421.876-1332.163,422.082-1332.163Zm.628,1.92v-1.257h-1.258v1.257Z" transform="translate(-170.313 -181.723)"/>
    <path id="Path_15664" data-name="Path 15664" d="M494.083-1329.614c-.206,0-.411,0-.616,0a.64.64,0,0,1-.666-.654c-.007-.42-.006-.84,0-1.26a.634.634,0,0,1,.659-.66q.63-.01,1.259,0a.636.636,0,0,1,.654.665q.01.617,0,1.233a.642.642,0,0,1-.673.675C494.493-1329.61,494.288-1329.614,494.083-1329.614Zm.643-1.917H493.46v1.253h1.266Z" transform="translate(-238.451 -181.696)"/>
    <path id="Path_15665" data-name="Path 15665" d="M278.015-1257.6c-.2,0-.393,0-.589,0a.64.64,0,0,1-.663-.657q-.011-.629,0-1.258a.64.64,0,0,1,.663-.657c.419-.007.839-.008,1.258,0a.638.638,0,0,1,.65.643q.015.643,0,1.285a.639.639,0,0,1-.65.644C278.461-1257.589,278.238-1257.6,278.015-1257.6Zm.667-1.914h-1.256v1.257h1.256Z" transform="translate(-34.011 -249.849)"/>
    <path id="Path_15666" data-name="Path 15666" d="M350.026-1257.617c-.205,0-.411.006-.616,0a.636.636,0,0,1-.644-.649q-.012-.643,0-1.286a.627.627,0,0,1,.627-.636q.656-.017,1.313,0a.627.627,0,0,1,.631.633c.01.429.009.858,0,1.286a.641.641,0,0,1-.668.653C350.455-1257.612,350.24-1257.617,350.026-1257.617Zm.649-.652v-1.266h-1.251v1.266Z" transform="translate(-102.148 -249.827)"/>
    <path id="Path_15667" data-name="Path 15667" d="M420.819-1258.91c0-.206,0-.411,0-.616a.634.634,0,0,1,.638-.654c.429-.01.858-.009,1.286,0a.633.633,0,0,1,.648.644q.012.643,0,1.286a.629.629,0,0,1-.624.64c-.437.012-.875.011-1.313,0a.633.633,0,0,1-.635-.657C420.814-1258.481,420.819-1258.7,420.819-1258.91Zm1.922-.61h-1.266v1.254h1.266Z" transform="translate(-170.337 -249.838)"/>
    <path id="Path_15668" data-name="Path 15668" d="M363.3-1469.541c-.724,0-1.449,0-2.174,0-.277,0-.434-.166-.381-.391a.322.322,0,0,1,.361-.251h4.428c.209,0,.352.09.357.311.005.236-.144.331-.364.331Z" transform="translate(-113.476 -51.113)"/>
    <path id="Path_15669" data-name="Path 15669" d="M289.04-1391.976H290.3v1.264H289.04Z" transform="translate(-45.634 -125.123)" fill="#aed4ff"/>
    <path id="Path_15670" data-name="Path 15670" d="M362.418-1390.606h-1.257v-1.262h1.257Z" transform="translate(-113.883 -125.225)" fill="#aed4ff"/>
    <path id="Path_15671" data-name="Path 15671" d="M433.021-1390.584v-1.26h1.264v1.26Z" transform="translate(-181.886 -125.248)" fill="#aed4ff"/>
    <path id="Path_15672" data-name="Path 15672" d="M505.175-1391.941h1.258v1.257h-1.258Z" transform="translate(-250.167 -125.156)" fill="#aed4ff"/>
    <path id="Path_15673" data-name="Path 15673" d="M289.1-1320.052h1.252v1.266H289.1Z" transform="translate(-45.694 -193.186)" fill="#aed4ff"/>
    <path id="Path_15674" data-name="Path 15674" d="M362.317-1318.511h-1.258v-1.257h1.258Z" transform="translate(-113.787 -193.455)" fill="#aed4ff"/>
    <path id="Path_15675" data-name="Path 15675" d="M434.331-1318.511h-1.258v-1.257h1.258Z" transform="translate(-181.935 -193.455)" fill="#aed4ff"/>
    <path id="Path_15676" data-name="Path 15676" d="M506.445-1319.847v1.253h-1.266v-1.253Z" transform="translate(-250.171 -193.38)" fill="#aed4ff"/>
    <path id="Path_15677" data-name="Path 15677" d="M290.453-1247.777v1.257H289.2v-1.257Z" transform="translate(-45.782 -261.581)" fill="#aed4ff"/>
    <path id="Path_15678" data-name="Path 15678" d="M362.377-1246.595h-1.251v-1.266h1.251Z" transform="translate(-113.85 -261.502)" fill="#aed4ff"/>
    <path id="Path_15679" data-name="Path 15679" d="M434.335-1247.755v1.255h-1.266v-1.255Z" transform="translate(-181.931 -261.602)" fill="#aed4ff"/>
  </g>
</svg>
