<svg xmlns="http://www.w3.org/2000/svg" width="23.151" height="23.364" viewBox="0 0 23.151 23.364">
  <g id="Group_2822" data-name="Group 2822" transform="translate(0.243 0.251)">
    <path id="Path_13226" data-name="Path 13226" d="M-371.163,216.862c1.776.168,3.565.25,5.324.522,3.253.5,4.982,2.254,5.572,5.49a32.856,32.856,0,0,1,.354,7.6,27.764,27.764,0,0,1-.358,3.32,6.1,6.1,0,0,1-5.5,5.517,32.064,32.064,0,0,1-7.647.335,27.378,27.378,0,0,1-3.605-.44A5.924,5.924,0,0,1-382,234.224a31.148,31.148,0,0,1-.435-8.032,27.051,27.051,0,0,1,.443-3.7,5.942,5.942,0,0,1,5-5.024A38.882,38.882,0,0,1-371.163,216.862Zm9.512,11.647c-.137-1.726-.2-3.285-.4-4.827-.367-2.842-1.465-3.984-4.27-4.461a26.95,26.95,0,0,0-3.423-.316,28.33,28.33,0,0,0-6.9.424,4.1,4.1,0,0,0-3.487,3.468,30.808,30.808,0,0,0-.086,10.667c.39,2.443,1.539,3.563,3.967,3.963a31.969,31.969,0,0,0,3.617.353,28.9,28.9,0,0,0,6.52-.337c2.423-.432,3.594-1.538,3.973-3.963C-361.878,231.786-361.8,230.062-361.651,228.509Z" transform="translate(382.508 -216.862)" fill="#fff" stroke="#fff" stroke-width="0.5"/>
    <path id="Path_13227" data-name="Path 13227" d="M-307.124,299.416l3.8-3.79c.093-.093.179-.192.279-.277a.944.944,0,0,1,1.33.034.939.939,0,0,1,.008,1.292c-.183.209-.39.4-.587.594q-2.012,2.019-4.024,4.037a.968.968,0,0,1-1.575.021q-1.083-1.071-2.147-2.161a.967.967,0,0,1-.087-1.435.94.94,0,0,1,1.428.11C-308.169,298.353-307.656,298.881-307.124,299.416Z" transform="translate(317.5 -287.393)" fill="#fff" stroke="#fff" stroke-width="0.5"/>
  </g>
</svg>
