<svg xmlns="http://www.w3.org/2000/svg" width="34.288" height="44.572" viewBox="0 0 34.288 44.572">
  <defs>
    <style>
      .cls-1 {
        stroke: #fff;
        stroke-width: 0.4px;
      }

      .cls-2 {
        fill: #fff;
      }

      .cls-3 {
        fill: none;
      }

      .cls-4 {
        fill: #aed4ff;
        stroke: #aed4ff;
        stroke-width: 0.3px;
      }
    </style>
  </defs>
  <g id="ic_sub_admin" transform="translate(651.146 47.946)">
    <path id="Path_15610" data-name="Path 15610" class="cls-1" d="M-639.16-26.324c0-.944.011-1.843-.01-2.74a.815.815,0,0,0-.228-.469,7.51,7.51,0,0,1-1.98-4.964,2.879,2.879,0,0,1-2.423-1.379,3.947,3.947,0,0,1-.477-1.792c.015-1.486.989-2.379,2.911-2.827,0-.866,0-1.743,0-2.62a3.088,3.088,0,0,1,3.1-3.258,1.191,1.191,0,0,0,.611-.2,5.01,5.01,0,0,1,2.864-1.135,31.3,31.3,0,0,1,4.765.1,4.037,4.037,0,0,1,3.332,4.121c-.12,1.038.214,2,.044,3,2.015.479,2.98,1.5,2.952,3.076-.027,1.542-.993,2.526-2.928,2.954a7.511,7.511,0,0,1-2.067,5.026.614.614,0,0,0-.148.38c-.012.9-.007,1.8-.007,2.749,1.546.288,3.07.549,4.585.861a25.255,25.255,0,0,1,4.157.986,4.6,4.6,0,0,1,3.01,4.456c.07,4.5.038,9,.016,13.5a2.941,2.941,0,0,1-2.953,2.912,41.407,41.407,0,0,1-9.383-.776,56.82,56.82,0,0,0-5.753-.872,11.186,11.186,0,0,0-3,.489c-1.72.355-3.417.884-5.153,1.075a41.461,41.461,0,0,1-5.143.025,2.031,2.031,0,0,1-.867-.281,2.8,2.8,0,0,1-1.6-2.573c-.019-4.478-.029-8.957,0-13.435a5.026,5.026,0,0,1,4.056-4.889c2.361-.482,4.734-.907,7.1-1.358C-639.59-26.234-639.41-26.273-639.16-26.324Zm5.1-16.305c-.859,0-1.719.029-2.576-.012-.445-.021-.624.167-.823.533-.7,1.29-1.459,2.549-2.182,3.826a1.515,1.515,0,0,0-.236.665c-.023,1.1-.035,2.209,0,3.312a5.9,5.9,0,0,0,5.5,5.651,5.78,5.78,0,0,0,6.128-4.851,35.225,35.225,0,0,0,.125-4.282.968.968,0,0,0-.188-.435c-.782-1.336-1.585-2.661-2.343-4.012a.627.627,0,0,0-.647-.4C-632.224-42.615-633.144-42.629-634.064-42.629ZM-637.624-7.2c.24.05.378.085.519.107,2.7.428,5.412.814,8.105,1.291a39.6,39.6,0,0,0,8.831.724c.907-.044,1.578-.53,1.6-1.354.045-1.508.013-3.019.013-4.584l-18.716-1.17Zm-1.975-6.663c-.509-.572-.946-1.081-1.4-1.57a1.036,1.036,0,0,1-.28-1.111c.188-.617.3-1.256.466-1.943-.712-.147-1.364-.294-2.02-.416-1.64-.3-1.731-.475-1.086-1.995.442-1.041.864-2.092,1.362-3.3-1.646.347-3.163.572-4.619,1a2.859,2.859,0,0,0-2.083,2.306c-.225,1.556-.193,3.148-.274,4.766,1.012,0,1.871-.052,2.721.015.828.066,1.647.254,2.518.4v-1.1h1.46c0,.6-.014,1.149.009,1.7a.627.627,0,0,0,.193.457A4.471,4.471,0,0,0-639.6-13.867Zm12.407-4.626c.159.677.266,1.3.456,1.893a1.11,1.11,0,0,1-.313,1.217c-.456.478-.884.983-1.366,1.524a4.445,4.445,0,0,0,3-.775.688.688,0,0,0,.235-.493c.029-.563.011-1.129.011-1.694h1.488v1.1c.849-.139,1.667-.329,2.494-.394.865-.068,1.739-.015,2.632-.015,0-1.387.065-2.7-.018-3.995a3.208,3.208,0,0,0-2.151-3.021,45.881,45.881,0,0,0-4.706-1.077c.133.356.2.541.27.722.412,1,.834,2,1.239,3s.242,1.3-.83,1.522C-625.545-18.815-626.34-18.663-627.192-18.493Zm-22.244,8.858,6.734.559c.156-1.1.329-2.228.458-3.36a.64.64,0,0,0-.3-.5c-1.029-.543-2.076-1.053-3.119-1.569a1.006,1.006,0,0,0-.4-.142c-1.118-.011-2.235-.006-3.379-.006Zm17.476-4.028c1.324.06,1.324.06,2.1-.8a4.845,4.845,0,0,1,.534-.591,2.121,2.121,0,0,0,.74-2.865,3.364,3.364,0,0,1-.164-.715c-.184-.779-.038-1.029.762-1.208s1.628-.337,2.526-.521c-.557-1.344-1.082-2.622-1.623-3.894a.5.5,0,0,0-.3-.259c-.53-.122-1.068-.213-1.652-.324Zm-4.091-.011-2.913-11.165c-.573.1-1.057.173-1.531.287a.662.662,0,0,0-.419.293c-.548,1.268-1.07,2.548-1.627,3.89.9.185,1.712.342,2.522.524s.951.431.764,1.206a13.489,13.489,0,0,1-.364,1.423,1.3,1.3,0,0,0,.4,1.574,6.635,6.635,0,0,1,1.066,1.182A1.921,1.921,0,0,0-636.051-13.674Zm-13.412,5.685c0,.479-.008.906,0,1.333a1.477,1.477,0,0,0,1.578,1.568,23.989,23.989,0,0,0,3.057-.017c1.93-.224,3.846-.569,5.788-.867l-.187-.859C-642.62-7.219-645.923-8.29-649.463-7.989ZM-637.684-28.1c0,.552-.03,1.044.016,1.528a.646.646,0,0,0,.35.449q1.466.535,2.959.993a1.274,1.274,0,0,0,.71,0c.994-.306,1.98-.64,2.961-.987.142-.05.336-.213.344-.335.038-.534.016-1.073.016-1.649A7.777,7.777,0,0,1-637.684-28.1Zm3.672,4.879a1.227,1.227,0,0,0-.745,1.307c.047,2.285.013,4.571.024,6.857a10.043,10.043,0,0,0,.121,1.025.533.533,0,0,0,.626.559.511.511,0,0,0,.585-.532,9.719,9.719,0,0,0,.127-1.086c.012-2.265-.016-4.531.021-6.8A1.2,1.2,0,0,0-634.012-23.225Zm15.439,8.686a8.135,8.135,0,0,0-6.7,1.62l6.7.412Zm-22.68,5.78,2.219.472c.1-1.363.189-2.653.287-4.019h-2Zm11.1-37.271-.074-.185a11.176,11.176,0,0,0-1.147-.086c-.309.006-.73-.013-.905.169-.572.593-1.055,1.273-1.694,2.073.772-.055,1.484.094,1.932-.184A12.051,12.051,0,0,0-630.154-46.029Zm-9.723,5.193c.686-1.269,1.756-2.394,1.4-4a1.478,1.478,0,0,0-1.386,1.345C-639.923-42.613-639.877-41.723-639.877-40.836Zm2.863-3.232c.509-.044,1,.063,1.2-.131a25.143,25.143,0,0,0,1.736-2.109,3.853,3.853,0,0,0-2.717.982C-637.018-45.1-636.937-44.579-637.014-44.068Zm-4.385,5.147c-.933.147-1.459.709-1.436,1.488a1.451,1.451,0,0,0,1.436,1.393Zm14.792,0v2.883a1.453,1.453,0,0,0,1.432-1.4A1.459,1.459,0,0,0-626.607-38.921Zm-10.739,14.375.433,1.705,1.374-1.118Zm6.686-.009-1.814.61,1.385,1.1Zm2.5-19.579-.565-1.008-1.1,1.008Zm-.081,3.445.15-.037c-.036-.409-.09-.818-.1-1.228-.023-.671-.375-.795-1.011-.6Z"/>
    <path id="Path_15611" data-name="Path 15611" class="cls-2" d="M-555.112-6.077c.92,0,1.84.015,2.76-.008a.627.627,0,0,1,.647.4c.758,1.35,1.56,2.675,2.343,4.012a.967.967,0,0,1,.188.435,35.226,35.226,0,0,1-.125,4.282A5.78,5.78,0,0,1-555.427,7.9a5.9,5.9,0,0,1-5.5-5.651c-.033-1.1-.021-2.208,0-3.312a1.515,1.515,0,0,1,.236-.665c.724-1.278,1.481-2.537,2.182-3.826.2-.366.378-.554.823-.533C-556.831-6.048-555.971-6.077-555.112-6.077Zm1.886,7.465a8,8,0,0,1-4,.64V3.484a8.362,8.362,0,0,0,4.72-.833c-.089-.177-.146-.305-.217-.426C-552.873,1.963-553.034,1.705-553.226,1.389Zm-5.187-2.317a1.115,1.115,0,0,0,1.147-1.038,1.115,1.115,0,0,0-1.021-1.162,1.116,1.116,0,0,0-1.179,1.065A1.118,1.118,0,0,0-558.413-.928Zm6.693,0a1.112,1.112,0,0,0,1.081-1.1,1.112,1.112,0,0,0-1.089-1.1A1.113,1.113,0,0,0-552.84-2,1.118,1.118,0,0,0-551.72-.928Z" transform="translate(-78.952 -36.553)"/>
    <path id="Path_15612" data-name="Path 15612" class="cls-3" d="M-542.37,247.082c.119-1.665.234-3.287.355-4.985l18.716,1.17c0,1.566.032,3.076-.013,4.584-.025.824-.7,1.31-1.6,1.354a39.6,39.6,0,0,1-8.831-.724c-2.694-.477-5.4-.864-8.106-1.291C-541.992,247.167-542.13,247.132-542.37,247.082Zm2.176-.863h1.4v-1.406h-1.4Zm2.947-1.408v1.411h1.4v-1.411Z" transform="translate(-95.254 -254.287)"/>
    <path id="Path_15613" data-name="Path 15613" class="cls-2" d="M-629.521,154.523a4.471,4.471,0,0,1-3.037-.794.628.628,0,0,1-.193-.457c-.023-.549-.009-1.1-.009-1.7h-1.46v1.1c-.871-.142-1.69-.33-2.518-.4-.85-.067-1.709-.015-2.721-.015.08-1.618.049-3.211.274-4.766a2.859,2.859,0,0,1,2.083-2.306c1.456-.431,2.972-.656,4.619-1-.5,1.21-.92,2.26-1.362,3.3-.645,1.52-.554,1.691,1.086,1.995.656.122,1.308.268,2.02.416-.161.687-.279,1.326-.466,1.943a1.035,1.035,0,0,0,.28,1.111C-630.467,153.442-630.03,153.951-629.521,154.523Z" transform="translate(-10.079 -168.39)"/>
    <path id="Path_15614" data-name="Path 15614" class="cls-2" d="M-466.1,149.77c.852-.169,1.647-.322,2.44-.486,1.073-.223,1.236-.519.83-1.522s-.827-2-1.239-3c-.075-.181-.138-.366-.27-.722a45.9,45.9,0,0,1,4.706,1.077,3.208,3.208,0,0,1,2.151,3.021c.083,1.3.018,2.608.018,3.995-.893,0-1.767-.053-2.632.015-.828.065-1.645.255-2.494.394v-1.1h-1.488c0,.565.018,1.131-.011,1.694a.688.688,0,0,1-.235.493,4.444,4.444,0,0,1-3,.775c.483-.541.911-1.046,1.366-1.524a1.11,1.11,0,0,0,.313-1.217C-465.837,151.068-465.944,150.447-466.1,149.77Z" transform="translate(-161.09 -168.263)"/>
    <path id="Path_15615" data-name="Path 15615" class="cls-3" d="M-638.639,227.061v-5.014c1.144,0,2.262,0,3.379.006a1,1,0,0,1,.4.142c1.043.516,2.09,1.025,3.119,1.569a.64.64,0,0,1,.3.5c-.129,1.132-.3,2.259-.458,3.36Z" transform="translate(-10.797 -236.695)"/>
    <path id="Path_15616" data-name="Path 15616" class="cls-4" d="M-496.209,150.162l2.914-11.179c.584.111,1.122.2,1.652.324a.5.5,0,0,1,.3.259c.541,1.271,1.066,2.55,1.623,3.894-.9.184-1.715.339-2.526.521s-.946.428-.762,1.208a3.357,3.357,0,0,0,.164.715,2.121,2.121,0,0,1-.74,2.865,4.849,4.849,0,0,0-.534.591C-494.885,150.222-494.885,150.221-496.209,150.162Z" transform="translate(-135.751 -163.825)"/>
    <path id="Path_15617" data-name="Path 15617" class="cls-4" d="M-575.955,150.173a1.922,1.922,0,0,1-2.1-.786,6.632,6.632,0,0,0-1.066-1.182,1.294,1.294,0,0,1-.4-1.574,13.506,13.506,0,0,0,.364-1.423c.187-.775.036-1.026-.764-1.206s-1.626-.339-2.522-.524c.557-1.342,1.078-2.622,1.627-3.89a.662.662,0,0,1,.419-.293c.474-.114.959-.183,1.531-.287Z" transform="translate(-60.096 -163.847)"/>
    <path id="Path_15618" data-name="Path 15618" class="cls-2" d="M-638.88,275.954c3.54-.3,6.844.77,10.239,1.158l.187.859c-1.942.3-3.858.643-5.788.867a24,24,0,0,1-3.057.017,1.477,1.477,0,0,1-1.578-1.568C-638.888,276.86-638.88,276.433-638.88,275.954Z" transform="translate(-10.583 -283.943)"/>
    <path id="Path_15619" data-name="Path 15619" class="cls-2" d="M-542.925,112.395a7.777,7.777,0,0,0,7.357,0c0,.576.022,1.115-.016,1.649-.009.122-.2.285-.344.335-.981.346-1.967.68-2.961.987a1.274,1.274,0,0,1-.71,0q-1.49-.461-2.959-.993a.645.645,0,0,1-.35-.449C-542.955,113.439-542.925,112.947-542.925,112.395Z" transform="translate(-94.759 -140.499)"/>
    <path id="Path_15620" data-name="Path 15620" class="cls-2" d="M-518.268,152.162a1.2,1.2,0,0,1,.757,1.334c-.037,2.265-.009,4.53-.02,6.8a9.719,9.719,0,0,1-.127,1.086.511.511,0,0,1-.585.532.533.533,0,0,1-.626-.559,10.026,10.026,0,0,1-.121-1.025c-.011-2.286.023-4.572-.024-6.857A1.227,1.227,0,0,1-518.268,152.162Z" transform="translate(-115.744 -175.387)"/>
    <path id="Path_15621" data-name="Path 15621" class="cls-2" d="M-435.012,221.724v2.032l-6.7-.412A8.135,8.135,0,0,1-435.012,221.724Z" transform="translate(-183.561 -236.263)"/>
    <path id="Path_15622" data-name="Path 15622" class="cls-2" d="M-571.942,244.7l.511-3.547h2c-.1,1.366-.19,2.657-.287,4.019Z" transform="translate(-69.31 -253.455)"/>
    <path id="Path_15623" data-name="Path 15623" class="cls-4" d="M-508.8-35.638a12.05,12.05,0,0,1-1.888,1.787c-.448.278-1.16.129-1.932.184.639-.8,1.122-1.48,1.694-2.073.175-.181.6-.163.905-.169a11.173,11.173,0,0,1,1.147.086Z" transform="translate(-121.351 -10.391)"/>
    <path id="Path_15624" data-name="Path 15624" class="cls-4" d="M-560.852-20c0-.887-.046-1.777.014-2.659a1.478,1.478,0,0,1,1.386-1.345C-559.1-22.4-560.166-21.271-560.852-20Z" transform="translate(-79.025 -20.835)"/>
    <path id="Path_15625" data-name="Path 15625" class="cls-4" d="M-537.4-33.727c.076-.51,0-1.036.218-1.258a3.853,3.853,0,0,1,2.717-.982,25.132,25.132,0,0,1-1.736,2.109C-536.392-33.663-536.888-33.771-537.4-33.727Z" transform="translate(-99.618 -10.341)"/>
    <path id="Path_15626" data-name="Path 15626" class="cls-2" d="M-583.4,24.237v2.88a1.451,1.451,0,0,1-1.436-1.393C-584.864,24.946-584.338,24.384-583.4,24.237Z" transform="translate(-57.994 -63.158)"/>
    <path id="Path_15627" data-name="Path 15627" class="cls-2" d="M-452.585,24.236a1.459,1.459,0,0,1,1.432,1.478,1.453,1.453,0,0,1-1.432,1.4Z" transform="translate(-174.022 -63.157)"/>
    <path id="Path_15628" data-name="Path 15628" class="cls-4" d="M-540.1,141.388l1.807.587-1.374,1.118Z" transform="translate(-97.241 -165.935)"/>
    <path id="Path_15629" data-name="Path 15629" class="cls-4" d="M-498.588,141.317l-.429,1.707-1.386-1.1Z" transform="translate(-132.072 -165.872)"/>
    <path id="Path_15630" data-name="Path 15630" class="cls-4" d="M-477.2-25.455h-1.666l1.1-1.008Z" transform="translate(-150.969 -18.679)"/>
    <path id="Path_15631" data-name="Path 15631" class="cls-4" d="M-472.841-4.105l-.965-1.863c.636-.2.987-.074,1.011.6.014.41.068.819.1,1.228Z" transform="translate(-155.405 -36.584)"/>
    <path id="Path_15632" data-name="Path 15632" d="M-526.561,54.861c.192.316.353.574.506.835.071.121.128.249.217.426a8.362,8.362,0,0,1-4.72.833V55.5A8,8,0,0,0-526.561,54.861Z" transform="translate(-105.617 -90.025)"/>
    <path id="Path_15633" data-name="Path 15633" d="M-547.791,20.224a1.118,1.118,0,0,1-1.053-1.134,1.116,1.116,0,0,1,1.179-1.065,1.115,1.115,0,0,1,1.021,1.162A1.114,1.114,0,0,1-547.791,20.224Z" transform="translate(-89.573 -57.705)"/>
    <path id="Path_15634" data-name="Path 15634" d="M-493.725,20.23a1.118,1.118,0,0,1-1.12-1.068,1.113,1.113,0,0,1,1.112-1.134,1.112,1.112,0,0,1,1.089,1.1A1.112,1.112,0,0,1-493.725,20.23Z" transform="translate(-136.947 -57.711)"/>
    <path id="Path_15635" data-name="Path 15635" d="M-524.633,265.641v-1.406h1.4v1.406Z" transform="translate(-110.815 -273.708)"/>
    <path id="Path_15636" data-name="Path 15636" d="M-500.619,264.216h1.4v1.411h-1.4Z" transform="translate(-131.882 -273.692)"/>
  </g>
</svg>
