<svg xmlns="http://www.w3.org/2000/svg" width="34.411" height="34.375" viewBox="0 0 34.411 34.375">
  <defs>
    <style>
      .cls-1 {
        fill: #aed4ff;
      }

      .cls-2 {
        fill: #fff;
      }
    </style>
  </defs>
  <g id="ic_tc_user" transform="translate(-1325.996 175.806)">
    <path id="Path_13371" data-name="Path 13371" d="M1333.8-143.494c1.467.089,2.882.173,4.3.26.575.035,1.15.069,1.724.115.409.033.624.239.6.547s-.269.483-.675.458c-2.12-.131-4.24-.274-6.362-.392-.66-.037-1.324-.006-1.97-.006a.374.374,0,0,0-.032.068c-.121,1.011-.121,1.011-1.163,1.011-1.165,0-2.33,0-3.495,0-.574,0-.723-.154-.723-.733q0-5.2,0-10.407c0-.574.158-.735.721-.735q1.9,0,3.8,0c.706,0,.817.109.837.819,0,.074.011.148.019.241h1.684v-2.237a3.035,3.035,0,0,1,2.364-3.336,3.3,3.3,0,0,1-.815-2.84,3.228,3.228,0,0,1,1.833-2.338,7.836,7.836,0,0,1-1.318-3.4,7.894,7.894,0,0,1,3.624-8.034,7.87,7.87,0,0,1,7.768-.643c.095.039.188.081.279.127.324.167.455.454.307.716a.523.523,0,0,1-.728.209,13.748,13.748,0,0,0-1.7-.577,7.1,7.1,0,0,0-7.41,2.988,7.188,7.188,0,0,0-.105,7.869.881.881,0,0,0,.811.495,2.994,2.994,0,0,1,2.338,1.218c.054.067.11.133.151.182l1.092-1.038c-.109-.348-.234-.746-.367-1.171-.658.008-1.366.547-1.942-.012a5.137,5.137,0,0,1-.994-1.48c-.452-.948.386-1.425.873-2.037-.337-.553-1.127-.9-.963-1.653a5.258,5.258,0,0,1,.729-1.541c.591-.971,1.467-.456,2.272-.361.277-.561.207-1.375.888-1.621a5.125,5.125,0,0,1,1.695-.169c1.161,0,1.2.99,1.483,1.777.643-.015,1.333-.5,1.887-.018a4.963,4.963,0,0,1,1.02,1.456c.515.982-.359,1.472-.856,2.115.534.659,1.438,1.21.782,2.258-.313.5-.452,1.223-1.082,1.379a7.072,7.072,0,0,1-1.772-.014c-.1.317-.231.714-.351,1.09l1.038.985a7.867,7.867,0,0,1,1.239-.968,4.812,4.812,0,0,1,1.464-.386.684.684,0,0,0,.526-.3,7.177,7.177,0,0,0-.541-8.786c-.1-.113-.211-.223-.313-.338-.257-.294-.275-.571-.034-.775a.48.48,0,0,1,.745.072,12.187,12.187,0,0,1,1.34,1.766,8.03,8.03,0,0,1-.171,8.33c-.051.087-.1.174-.153.259,2.173,1.723,2.393,2.841,1.014,5.219.145.049.286.093.424.145a3.011,3.011,0,0,1,1.912,3.143.472.472,0,0,1-.524.489.474.474,0,0,1-.473-.543,2.157,2.157,0,0,0-.576-1.69,1.756,1.756,0,0,0-1.23-.557c-1.074-.019-2.148-.006-3.235-.006,0,.052-.015.1,0,.121a3.388,3.388,0,0,1,.606,2.287c-.021.665-.014,1.331,0,2a.486.486,0,0,0,.176.36,2.132,2.132,0,0,1,1.07,2.991c-.008.02,0,.047.006.115.836,0,1.676.011,2.515-.006.264-.005.656-.511.657-.792,0-.755,0-1.51,0-2.266,0-.405.186-.646.49-.656s.509.24.512.67c0,.46,0,.919,0,1.471.151-.14.25-.225.341-.317,1.024-1.022,2.042-2.049,3.07-3.066a2.036,2.036,0,0,1,2.157-.536,2.032,2.032,0,0,1,1.459,1.675,1.964,1.964,0,0,1-.54,1.806c-1.908,1.929-3.82,3.855-5.765,5.747a3.352,3.352,0,0,1-1.286.728c-2.46.789-4.936,1.527-7.4,2.3a7.559,7.559,0,0,1-3.075.25c-.344-.035-.555-.248-.527-.538s.212-.5.508-.456c2.012.3,3.789-.579,5.632-1.1q2.214-.628,4.394-1.372a3.447,3.447,0,0,0,1.268-.74c1.8-1.748,3.559-3.537,5.335-5.308a1.224,1.224,0,0,0,.466-1.154,1.077,1.077,0,0,0-.776-.872,1.11,1.11,0,0,0-1.16.311q-1.858,1.862-3.72,3.72c-.389.389-.787.77-1.161,1.173a1.064,1.064,0,0,1-.85.348c-3.2-.009-6.4,0-9.6-.012a.866.866,0,0,0-.8.335,1.171,1.171,0,0,1-.162.163c-.283.262-.557.286-.776.069a.514.514,0,0,1,.059-.777c.159-.166.334-.319.485-.492a.9.9,0,0,1,.748-.3c1.7.01,3.4,0,5.107,0,.1,0,.2,0,.307,0,.81-.009,1.315-.447,1.309-1.137s-.52-1.126-1.32-1.127c-1.562,0-3.123-.009-4.685.005a1.216,1.216,0,0,1-.837-.3,12.758,12.758,0,0,0-1.343-1.02,4.776,4.776,0,0,0-5.315.208c-1.1.789-1.1.789-1.1,2.134v6.7Zm9.409-19.783a1.387,1.387,0,0,1,.23,0c.379.065.555-.1.631-.471a8.033,8.033,0,0,1,.309-.987.566.566,0,0,1,.74-.42c.15.029.3.065.449.1,1.089.253,1.1.257,1.59-.762a.535.535,0,0,0-.058-.46,10.258,10.258,0,0,0-.722-.795c-.38-.41-.381-.654-.009-1.057.243-.263.478-.534.73-.788a.371.371,0,0,0,.062-.509c-.518-.966-.513-.968-1.584-.736-1,.218-1.035.2-1.357-.79-.337-1.033-.337-1.042-1.44-.965a.53.53,0,0,0-.369.278c-.152.364-.244.753-.37,1.128a.574.574,0,0,1-.765.444c-.389-.077-.78-.15-1.161-.258a.334.334,0,0,0-.473.246c-.107.382-.706.634-.344,1.13.24.328.553.6.824.91a.587.587,0,0,1,.008.859c-.091.108-.193.205-.288.309-.769.835-.765.832-.176,1.8a.34.34,0,0,0,.435.193c.382-.1.771-.184,1.158-.266a.581.581,0,0,1,.786.457c.083.242.156.487.236.729C1342.533-163.183,1342.342-163.288,1343.205-163.277Zm-12.881,20.811v-9.806h-3.3v9.806Zm16.571-9.762c0-.917.01-1.8,0-2.674a1.887,1.887,0,0,0-1.92-1.928c-1.176-.019-2.353-.009-3.529,0a1.928,1.928,0,0,0-1.353.544,2.581,2.581,0,0,0-.57,2.218c0,.052.087.125.147.147a8.17,8.17,0,0,1,2.419,1.526.843.843,0,0,0,.484.163c.767.017,1.534.007,2.3.007Zm-3.709-5.62a2.231,2.231,0,0,0,2.232-2.212,2.223,2.223,0,0,0-2.2-2.2,2.226,2.226,0,0,0-2.232,2.21A2.234,2.234,0,0,0,1343.186-157.848Zm-3.209-2.23a2.2,2.2,0,0,0-2.209-2.185,2.219,2.219,0,0,0-2.211,2.228,2.227,2.227,0,0,0,2.215,2.187A2.213,2.213,0,0,0,1339.977-160.078Zm8.662,2.23a2.228,2.228,0,0,0,2.208-2.194,2.219,2.219,0,0,0-2.219-2.22,2.2,2.2,0,0,0-2.2,2.192A2.212,2.212,0,0,0,1348.639-157.848Zm-9.435,1.013h-.463c-.947,0-1.895-.021-2.84.012a1.788,1.788,0,0,0-1.776,1.566,16.049,16.049,0,0,0-.019,2.124,15.029,15.029,0,0,1,2.065-.883,16.524,16.524,0,0,1,2.328-.3A3.373,3.373,0,0,1,1339.2-156.836Zm-6.451,13.283V-151.2h-1.372v7.645Z" transform="translate(0 0)"/>
    <path id="Path_13372" data-name="Path 13372" class="cls-1" d="M1501.678-116.859c-.864-.01-.673.094-.928-.684-.079-.243-.153-.488-.235-.729a.581.581,0,0,0-.787-.457c-.388.081-.776.163-1.158.266a.339.339,0,0,1-.435-.193c-.588-.964-.593-.962.177-1.8.1-.1.2-.2.288-.309a.587.587,0,0,0-.008-.859c-.271-.307-.584-.581-.824-.91-.362-.5.237-.748.344-1.13a.334.334,0,0,1,.473-.246c.381.108.772.182,1.161.258a.574.574,0,0,0,.765-.444c.126-.375.218-.764.37-1.128a.53.53,0,0,1,.369-.278c1.1-.077,1.1-.069,1.44.964.322.99.354,1.008,1.357.79,1.071-.232,1.066-.23,1.584.736a.371.371,0,0,1-.062.509c-.252.254-.487.525-.73.788-.373.4-.371.647.009,1.057a10.242,10.242,0,0,1,.721.795.534.534,0,0,1,.059.46c-.493,1.018-.5,1.014-1.59.762-.149-.035-.3-.07-.449-.1a.566.566,0,0,0-.74.42,7.97,7.97,0,0,0-.309.987c-.076.367-.252.536-.632.471A1.377,1.377,0,0,0,1501.678-116.859Zm0-5.918a1.6,1.6,0,0,0-1.6,1.582,1.623,1.623,0,0,0,1.586,1.6,1.623,1.623,0,0,0,1.6-1.59A1.6,1.6,0,0,0,1501.681-122.777Z" transform="translate(-158.473 -46.418)"/>
    <path id="Path_13373" data-name="Path 13373" class="cls-1" d="M1342.695,140.413h-3.3v-9.806h3.3Zm-1.109-8.125a.558.558,0,0,0-.505-.573.538.538,0,0,0-.073,1.074A.556.556,0,0,0,1341.586,132.288Zm0,2.14a.569.569,0,0,0-.536-.55.553.553,0,0,0-.54.537.523.523,0,0,0,.528.539A.54.54,0,0,0,1341.586,134.429Z" transform="translate(-12.37 -282.88)"/>
    <path id="Path_13374" data-name="Path 13374" class="cls-2" d="M1509.248,75.74h-2.024c-.767,0-1.534.009-2.3-.007a.84.84,0,0,1-.483-.163,8.168,8.168,0,0,0-2.42-1.526c-.061-.021-.145-.095-.147-.147a2.584,2.584,0,0,1,.57-2.218,1.93,1.93,0,0,1,1.354-.544c1.177-.006,2.353-.017,3.529,0a1.888,1.888,0,0,1,1.921,1.928C1509.258,73.945,1509.248,74.823,1509.248,75.74Z" transform="translate(-162.353 -227.968)"/>
    <path id="Path_13378" data-name="Path 13378" class="cls-2" d="M1436.348,71.125a3.372,3.372,0,0,0-.706,2.515,16.509,16.509,0,0,0-2.327.3,15.055,15.055,0,0,0-2.065.883,16.091,16.091,0,0,1,.019-2.124,1.788,1.788,0,0,1,1.776-1.566c.945-.033,1.893-.01,2.84-.012Z" transform="translate(-97.143 -227.961)"/>
    <path id="Path_13379" data-name="Path 13379" class="cls-2" d="M1397.482,152.244h-1.372V144.6h1.372Z" transform="translate(-64.729 -295.797)"/>
    <path id="Path_13380" data-name="Path 13380" d="M1530.878-89.723a1.6,1.6,0,0,1,1.586,1.6,1.623,1.623,0,0,1-1.6,1.59,1.623,1.623,0,0,1-1.586-1.6A1.6,1.6,0,0,1,1530.878-89.723Zm.01,2.163a.585.585,0,0,0,.562-.6.587.587,0,0,0-.576-.549.583.583,0,0,0-.58.582A.584.584,0,0,0,1530.888-87.56Z" transform="translate(-187.67 -79.472)"/>
    <path id="Path_13381" data-name="Path 13381" d="M1354.975,145.6a.555.555,0,0,1-.578.5.538.538,0,0,1,.073-1.074A.557.557,0,0,1,1354.975,145.6Z" transform="translate(-25.76 -296.19)"/>
    <path id="Path_13382" data-name="Path 13382" d="M1354.979,173.759a.54.54,0,0,1-.548.526.523.523,0,0,1-.528-.539.553.553,0,0,1,.541-.538A.569.569,0,0,1,1354.979,173.759Z" transform="translate(-25.763 -322.21)"/>
    <path id="Path_13383" data-name="Path 13383" class="cls-2" d="M1543.082-75.365a.584.584,0,0,1-.594-.567.583.583,0,0,1,.58-.582.587.587,0,0,1,.576.549A.586.586,0,0,1,1543.082-75.365Z" transform="translate(-199.864 -91.666)"/>
  </g>
</svg>
