<svg xmlns="http://www.w3.org/2000/svg" width="16.834" height="18.641" viewBox="0 0 16.834 18.641">
  <g id="ic_notification" transform="translate(-72.872 1144.943)">
    <path id="Path_13455" data-name="Path 13455" d="M83.316-1142.476a6.03,6.03,0,0,1,2.168,1.408,6.142,6.142,0,0,1,1.821,4.362c.015,1.132,0,2.265,0,3.4,0,.336.04.378.369.4a2.168,2.168,0,0,1,1.981,1.651,2.055,2.055,0,0,1-1.127,2.323,2.552,2.552,0,0,1-1,.219c-1.1.027-2.2.013-3.3.007-.168,0-.245.028-.285.223a2.7,2.7,0,0,1-2.663,2.185,2.712,2.712,0,0,1-2.646-2.207c-.035-.171-.1-.2-.254-.2-1.133,0-2.265.012-3.4,0a2.1,2.1,0,0,1-2.05-2.6,2.177,2.177,0,0,1,1.92-1.6c.4-.025.42-.043.42-.445,0-1.141,0-2.281,0-3.422a5.977,5.977,0,0,1,3.827-5.638c.166-.066.158-.163.15-.3a2.048,2.048,0,0,1,2.012-2.229,2.05,2.05,0,0,1,2.078,2.1C83.336-1142.731,83.325-1142.619,83.316-1142.476Zm-2.03,12.574h2.427c1.27,0,2.54,0,3.811,0a.912.912,0,0,0,.958-1.109.979.979,0,0,0-.964-.706,1.436,1.436,0,0,1-1.419-1.552q0-1.675,0-3.349a5.172,5.172,0,0,0-.512-2.274,4.749,4.749,0,0,0-6.754-2.057,4.63,4.63,0,0,0-2.343,4.056c-.029,1.229,0,2.46-.008,3.689a1.427,1.427,0,0,1-1.361,1.483,2.594,2.594,0,0,0-.289.035.907.907,0,0,0-.725,1.125.944.944,0,0,0,.989.661Zm-1.455,1.208a1.488,1.488,0,0,0,1.633,1.175,1.414,1.414,0,0,0,1.258-1.175Zm.627-14.119h1.662a.772.772,0,0,0-.374-.789.8.8,0,0,0-.892-.011A.783.783,0,0,0,80.456-1142.814Z" transform="translate(0 0)"/>
    <path id="Path_13456" data-name="Path 13456" d="M354.833-1094.568a.614.614,0,0,1-.514.626.621.621,0,0,1-.677-.461c-.2-.579-.381-1.166-.632-1.723a5.841,5.841,0,0,0-1.227-1.7.639.639,0,0,1-.219-.564.566.566,0,0,1,.39-.483.586.586,0,0,1,.645.156,7.13,7.13,0,0,1,1.464,2.009c.282.6.485,1.246.717,1.873A1.46,1.46,0,0,1,354.833-1094.568Z" transform="translate(-265.156 -43.794)"/>
    <path id="Path_13457" data-name="Path 13457" d="M74.119-1093.946a.592.592,0,0,1-.575-.748,7.4,7.4,0,0,1,1.092-2.625,15.18,15.18,0,0,1,1.083-1.364.592.592,0,0,1,.9-.07.608.608,0,0,1-.038.905,7.053,7.053,0,0,0-1.859,3.4A.6.6,0,0,1,74.119-1093.946Z" transform="translate(-0.625 -43.782)"/>
  </g>
</svg>
