<svg xmlns="http://www.w3.org/2000/svg" width="29.357" height="29.374" viewBox="0 0 29.357 29.374">
  <defs>
    <style>
      .cls-1 {
        fill: #aed4ff;
      }
    </style>
  </defs>
  <g id="ic_rate_master" transform="translate(-1329.922 70.602)">
    <path id="Path_13364" data-name="Path 13364" d="M1338.831-42.5a2,2,0,0,1-2.21,1.273c-1.585-.042-3.172-.008-4.758-.012a1.746,1.746,0,0,1-1.939-1.954q0-4.444,0-8.888a1.745,1.745,0,0,1,1.95-1.945c1.643-.01,3.287.005,4.93-.006a1.95,1.95,0,0,1,1.762.756c.777-.776,1.54-1.514,2.263-2.289a.806.806,0,0,0,.039-.624c-.852-3.228-1.72-6.453-2.582-9.679-.214-.8-.122-.949.694-1.167,1.475-.393,2.944-.805,4.427-1.164.5-.122.648-.337.635-.852-.039-1.547-.013-1.548,1.507-1.548h12.727c.886,0,1,.114,1,.976q0,13.7,0,27.409c0,.862-.118.976-1,.976-5.447,0-10.893-.015-16.339.013a3.625,3.625,0,0,1-2.8-1.044A2.852,2.852,0,0,0,1338.831-42.5ZM1356-46.767a1.952,1.952,0,0,1-.158,1.9,2.133,2.133,0,0,1-1.676.915v1.523h3.934V-69.415h-12.881v15.972h1.083v-.723c0-3.459.006-6.918-.006-10.377,0-.5.136-.787.675-.866a1.456,1.456,0,0,0,1.423-1.446.649.649,0,0,1,.713-.651q2.55.005,5.1,0a.636.636,0,0,1,.7.6c.178,1.017.467,1.312,1.5,1.506a.627.627,0,0,1,.6.692c-.009.688-.006,1.376,0,2.064,0,.375-.133.656-.536.673-.434.018-.6-.268-.611-.665-.007-.42.029-.844-.018-1.26a.69.69,0,0,0-.312-.492,2.91,2.91,0,0,1-1.643-1.662.544.544,0,0,0-.385-.3c-1.223-.023-2.446-.02-3.669,0a.493.493,0,0,0-.385.221,2.883,2.883,0,0,1-1.959,1.842v10.839h2.893c-1.606-1.233-1.916-2.95-.818-4.252a2.735,2.735,0,0,1,3.94-.248,2.641,2.641,0,0,1,.882,1.924,2.916,2.916,0,0,1-1.55,2.629,2.587,2.587,0,0,1,2.22.591,2.444,2.444,0,0,1,.537,2.154.706.706,0,0,0,.256-.492c.011-1.911.009-3.822.006-5.733,0-.419.074-.806.589-.8s.564.4.563.816q-.007,3.239,0,6.478a1.674,1.674,0,0,0,.083.612C1357.667-48.344,1357.4-47.573,1356-46.767Zm-14.647-7.718c-.771.788-1.482,1.481-2.148,2.214a1.3,1.3,0,0,0-.322.786c-.026,2.025.046,4.054-.04,6.075a2.363,2.363,0,0,0,1.06,2.31,2.805,2.805,0,0,0,1.63.715c3.5-.013,6.993,0,10.489-.007.657,0,1.042-.3,1.042-.8s-.385-.8-1.042-.8q-1.949-.006-3.9,0c-.422,0-.8-.067-.794-.588s.4-.567.818-.565c1.108.006,2.216,0,3.324,0,.9,0,1.8.011,2.694-.006a.79.79,0,0,0,.848-.811.786.786,0,0,0-.822-.783c-.152-.009-.306,0-.459,0-1.872,0-3.745,0-5.617,0-.425,0-.8-.076-.787-.6.01-.483.367-.558.769-.557,1.662,0,3.324,0,4.986,0,.783,0,1.567.014,2.35-.008a.762.762,0,0,0,.8-.8.771.771,0,0,0-.8-.8c-.152-.011-.306,0-.459,0h-6.706c-.426,0-.925.048-.932-.56-.008-.652.517-.589.959-.589h3.382c.593,0,1.185,0,1.777,0,.617-.006.988-.3,1-.784.011-.5-.374-.809-1.023-.818-.134,0-.267,0-.4,0h-10.26c-.785,0-.84-.048-1.041-.832C1341.615-53.507,1341.5-53.929,1341.352-54.485Zm-6.382,1.612v.708q0,2.723,0,5.446c0,.437.079.938-.56,1-.424.042-.588-.266-.588-1.028q0-2.149,0-4.3v-1.817a22.038,22.038,0,0,0-2.211.029.814.814,0,0,0-.515.6c-.033,3.057-.024,6.114-.022,9.171a.6.6,0,0,0,.672.674q2.636,0,5.272,0a.619.619,0,0,0,.7-.7q0-4.557,0-9.114a.58.58,0,0,0-.619-.662C1336.415-52.882,1335.729-52.873,1334.97-52.873Zm9.055-14.323-4.586,1.231,3.386,12.544h1.117c-.049-.212-.085-.393-.133-.57-.667-2.485-1.327-4.971-2.01-7.451a.705.705,0,0,1,.462-.99,1.456,1.456,0,0,0,.983-1.724.677.677,0,0,1,.475-.847.536.536,0,0,0,.292-.384C1344.045-65.957,1344.026-66.529,1344.026-67.2Zm9.208,11.265a1.585,1.585,0,0,0-1.606-1.587,1.585,1.585,0,0,0-1.558,1.578,1.587,1.587,0,0,0,1.577,1.617A1.586,1.586,0,0,0,1353.234-55.931ZM1343-61.424c.306,1.127.615,2.27.926,3.413l.071-.015v-4.256Z" transform="translate(0 0)"/>
    <path id="Path_13365" data-name="Path 13365" class="cls-1" d="M1343.846,84.006c.758,0,1.444-.009,2.13,0a.58.58,0,0,1,.619.662q0,4.557,0,9.114a.619.619,0,0,1-.7.7q-2.636,0-5.273,0a.6.6,0,0,1-.671-.674c0-3.057-.011-6.114.023-9.171a.814.814,0,0,1,.514-.6,22.042,22.042,0,0,1,2.211-.029v1.817q0,2.15,0,4.3c0,.762.164,1.07.588,1.028.638-.063.559-.564.56-1q0-2.723,0-5.446Zm-.718,9.416.26.006c.151-.22.439-.458.414-.655a.8.8,0,0,0-.553-.531c-.151-.024-.5.312-.51.5C1342.725,92.962,1342.986,93.2,1343.128,93.422Z" transform="translate(-8.876 -136.879)"/>
    <path id="Path_13366" data-name="Path 13366" class="cls-1" d="M1417.533-40.893c0,.666.019,1.239-.014,1.808a.536.536,0,0,1-.292.384.677.677,0,0,0-.475.847,1.456,1.456,0,0,1-.983,1.724.705.705,0,0,0-.462.99c.682,2.48,1.343,4.966,2.01,7.451.048.178.084.359.133.57h-1.117l-3.386-12.544Z" transform="translate(-73.507 -26.303)"/>
    <path id="Path_13367" data-name="Path 13367" class="cls-1" d="M1508.832,45.106a1.582,1.582,0,1,1-1.606-1.587A1.586,1.586,0,0,1,1508.832,45.106Z" transform="translate(-155.598 -101.037)"/>
    <path id="Path_13368" data-name="Path 13368" class="cls-1" d="M1443.983,2.826l1-.858V6.224l-.071.015Z" transform="translate(-100.985 -64.25)"/>
    <path id="Path_13369" data-name="Path 13369" d="M1555.45,20.226c.219-.154.439-.426.658-.425.187,0,.536.332.52.485a.8.8,0,0,1-.5.578c-.2.032-.448-.248-.675-.391C1555.454,20.391,1555.452,20.309,1555.45,20.226Z" transform="translate(-199.673 -80.039)"/>
    <path id="Path_13370" data-name="Path 13370" d="M1364.692,157.047c-.141-.226-.4-.461-.388-.676.013-.192.359-.529.509-.5a.8.8,0,0,1,.552.531c.026.2-.263.435-.414.655Z" transform="translate(-30.44 -200.504)"/>
  </g>
</svg>
