<svg xmlns="http://www.w3.org/2000/svg" width="22.935" height="22.975" viewBox="0 0 22.935 22.975">
  <path id="Icon_feather-phone-call" data-name="Icon feather-phone-call" d="M16.069,5.489a4.986,4.986,0,0,1,3.939,3.939M16.069,1.5A8.975,8.975,0,0,1,24,9.418m-1,7.957v2.992a1.994,1.994,0,0,1-2.174,1.994A19.734,19.734,0,0,1,12.22,19.3a19.445,19.445,0,0,1-5.983-5.983A19.734,19.734,0,0,1,3.176,4.671,1.994,1.994,0,0,1,5.16,2.5H8.152a1.994,1.994,0,0,1,1.994,1.715,12.8,12.8,0,0,0,.7,2.8,1.994,1.994,0,0,1-.449,2.1L9.129,10.385a15.955,15.955,0,0,0,5.983,5.983L16.379,15.1a1.994,1.994,0,0,1,2.1-.449,12.8,12.8,0,0,0,2.8.7A1.994,1.994,0,0,1,23,17.375Z" transform="translate(-2.167 -0.396)" fill="none" stroke="#2459a4" stroke-linecap="round" stroke-linejoin="round" stroke-width="2"/>
</svg>
