<svg id="Group_2820" data-name="Group 2820" xmlns="http://www.w3.org/2000/svg" width="23.932" height="23.933" viewBox="0 0 23.932 23.933">
  <path id="Path_13220" data-name="Path 13220" d="M-398.143,203.142c0-1.759-.008-3.519,0-5.278a3.88,3.88,0,0,1,3.957-3.963q5.347-.017,10.695,0a3.907,3.907,0,0,1,3.96,3.9q.042,5.382,0,10.765a3.957,3.957,0,0,1-3.937,3.944q-5.382.04-10.764,0a3.915,3.915,0,0,1-3.911-3.954C-398.154,206.754-398.143,204.948-398.143,203.142Zm2.648.074c0,1.689-.006,3.379,0,5.068.005,1.077.5,1.585,1.564,1.588q5.068.01,10.135,0a1.428,1.428,0,0,0,1.624-1.621q.009-5.033,0-10.066c0-1.157-.487-1.636-1.655-1.638q-5.033-.006-10.066,0c-1.145,0-1.6.458-1.6,1.6C-395.5,199.838-395.5,201.527-395.5,203.217Z" transform="translate(398.147 -193.893)" fill="#2565ab"/>
  <path id="Path_13221" data-name="Path 13221" d="M-361.8,242.569c-2.037,0-4.074,0-6.111,0-.954,0-1.527-.511-1.518-1.325s.592-1.318,1.539-1.319c3.8-.006,7.593,0,11.39,0a3.987,3.987,0,0,0,4.361-4.356q0-5.487,0-10.974c0-.208-.008-.417,0-.625a1.315,1.315,0,0,1,1.382-1.334A1.27,1.27,0,0,1-349.5,224q.016,4.723,0,9.446a23.777,23.777,0,0,1-.138,3.737,6.466,6.466,0,0,1-6.4,5.381C-357.957,242.578-359.879,242.569-361.8,242.569Z" transform="translate(373.418 -218.64)" fill="#2565ab"/>
  <path id="Path_13222" data-name="Path 13222" d="M-357.017,237.472c-1.107-.142-2.619.326-2.6-1.37.018-1.644,1.493-1.258,2.6-1.37,0-.4-.008-.759,0-1.122a1.387,1.387,0,0,1,1.325-1.484,1.317,1.317,0,0,1,1.332,1.447c.011.366,0,.732,0,1.2.468,0,.876-.015,1.283,0a1.4,1.4,0,0,1,1.409,1.339,1.339,1.339,0,0,1-1.4,1.318c-1.232.058-1.232.058-1.288,1.281a1.34,1.34,0,0,1-1.311,1.41,1.4,1.4,0,0,1-1.345-1.4C-357.032,238.328-357.017,237.935-357.017,237.472Z" transform="translate(364.97 -226.815)" fill="#2565ab"/>
</svg>
