<svg id="Group_2821" data-name="Group 2821" xmlns="http://www.w3.org/2000/svg" width="22.807" height="22.867" viewBox="0 0 22.807 22.867">
  <path id="Path_13224" data-name="Path 13224" d="M-529.316,177.626c0-.721,0-1.3,0-1.872a1.221,1.221,0,0,1,1.216-1.334,1.226,1.226,0,0,1,1.262,1.341q.008,2.206,0,4.411a1.63,1.63,0,0,1-1.6,1.734c-1.535.043-3.073.036-4.609.007a1.22,1.22,0,0,1-1.243-1.319,1.252,1.252,0,0,1,1.327-1.188c.57-.009,1.141,0,1.712,0l.08-.142c-.513-.5-.99-1.039-1.545-1.484A8.906,8.906,0,0,0-546.957,183c-.035.178-.074.355-.1.534-.124.863-.658,1.333-1.418,1.242a1.266,1.266,0,0,1-1.05-1.572,10.775,10.775,0,0,1,1.652-4.521A11.1,11.1,0,0,1-537.7,173.37a10.95,10.95,0,0,1,7.93,3.752C-529.653,177.253-529.533,177.386-529.316,177.626Z" transform="translate(549.639 -173.361)" fill="#fff"/>
  <path id="Path_13225" data-name="Path 13225" d="M-548.027,296.034c0,.581,0,1.152,0,1.722a1.229,1.229,0,0,1-1.24,1.361,1.246,1.246,0,0,1-1.239-1.371q-.008-2.18,0-4.361a1.665,1.665,0,0,1,1.725-1.768c1.47-.021,2.94-.017,4.41,0a1.227,1.227,0,0,1,1.318,1.245,1.265,1.265,0,0,1-1.353,1.27c-.558.01-1.116,0-1.674,0l-.1.133c.522.505,1,1.059,1.571,1.508a8.892,8.892,0,0,0,14.226-5.316c.043-.226.07-.456.118-.681a1.236,1.236,0,0,1,1.369-1.021,1.183,1.183,0,0,1,1.082,1.3,10.01,10.01,0,0,1-1.547,4.6,11.1,11.1,0,0,1-10.258,5.5,10.936,10.936,0,0,1-7.938-3.734c-.112-.122-.218-.248-.331-.369C-547.9,296.046-547.942,296.05-548.027,296.034Z" transform="translate(550.51 -277.307)" fill="#fff"/>
</svg>
