<svg xmlns="http://www.w3.org/2000/svg" width="11.771" height="14.02" viewBox="0 0 11.771 14.02">
  <g id="Group_2950" data-name="Group 2950" transform="translate(-644.416 -17.018)">
    <path id="Path_13247" data-name="Path 13247" d="M646.265,29.172c-.394,0-.745,0-1.1,0a.672.672,0,0,1-.751-.748q0-5.322,0-10.643a.687.687,0,0,1,.775-.76q4.185,0,8.369,0a.686.686,0,0,1,.775.761c.005.293.008.586,0,.879,0,.172.063.231.232.226.3-.009.607-.007.91,0a.656.656,0,0,1,.706.7c0,2.7.008,5.4,0,8.1a1.592,1.592,0,0,1-.527,1.158c-.6.572-1.2,1.144-1.808,1.706a1.792,1.792,0,0,1-1.241.489q-2.79.009-5.579,0a.68.68,0,0,1-.758-.747C646.26,29.928,646.265,29.567,646.265,29.172Zm.508-4.21q0,2.608,0,5.217c0,.2.019.358.284.357q2.76-.006,5.52,0c.185,0,.247-.071.244-.252q-.013-.728,0-1.456a.933.933,0,0,1,1.01-1c.5-.006.992-.018,1.486,0,.29.013.379-.074.378-.37-.011-2.558-.006-5.116-.006-7.674,0-.382-.02-.4-.388-.4H647.17c-.384,0-.4.012-.4.389Q646.772,22.369,646.773,24.962Zm7.056-6.079c0-.338,0-.63,0-.922,0-.437,0-.441-.439-.441h-8.034c-.43,0-.441.011-.441.444q0,5.139,0,10.278c0,.071-.023.156.009.209.049.083.131.2.2.206.369.021.74.01,1.137.01v-.4q0-4.229,0-8.459c0-.725.2-.924.91-.924h6.654Zm1.6,9.473c-.649,0-1.21-.015-1.768.013a.423.423,0,0,0-.3.284c-.031.524-.014,1.051-.014,1.666Z" transform="translate(0 0)"/>
    <path id="Path_13248" data-name="Path 13248" d="M683.239,61.611q0-2.593,0-5.187c0-.378.012-.389.4-.389h8.129c.368,0,.388.021.388.4,0,2.558,0,5.116.006,7.674,0,.3-.088.383-.378.37-.494-.022-.991-.011-1.486,0a.933.933,0,0,0-1.01,1q-.013.728,0,1.456c0,.182-.059.253-.244.252q-2.76-.006-5.52,0c-.264,0-.284-.153-.284-.357Q683.242,64.22,683.239,61.611Zm4.436-1.523c.788,0,1.576,0,2.363,0,.27,0,.427-.2.29-.372a.486.486,0,0,0-.34-.132c-1.535-.008-3.07-.005-4.606-.006-.183,0-.371.019-.372.251,0,.254.2.262.392.262Zm.022,1.689H690c.185,0,.366-.023.365-.257s-.183-.255-.368-.255h-4.605c-.181,0-.371.009-.38.243-.01.256.19.27.382.27Zm-.02-3.378c.788,0,1.575,0,2.363,0,.269,0,.427-.206.289-.372a.491.491,0,0,0-.342-.13c-1.525-.008-3.049-.006-4.574-.005-.186,0-.4,0-.4.252s.2.259.393.259Zm-1.069,4.556c-.413,0-.827,0-1.24,0-.188,0-.362.033-.356.266,0,.214.174.245.348.245h2.481c.175,0,.338-.035.341-.251s-.151-.259-.332-.259C687.434,62.956,687.021,62.955,686.607,62.955Z" transform="translate(-36.466 -36.649)" fill="#fff"/>
    <path id="Path_13249" data-name="Path 13249" d="M661.431,26.653h-6.654c-.715,0-.91.2-.91.924q0,4.229,0,8.459v.4c-.4,0-.768.011-1.137-.01-.073,0-.156-.123-.2-.206-.031-.053-.009-.138-.009-.209q0-5.139,0-10.278c0-.433.011-.444.441-.444h8.034c.436,0,.438,0,.439.441C661.431,26.023,661.431,26.315,661.431,26.653Z" transform="translate(-7.603 -7.77)" fill="#aed4ff"/>
    <path id="Path_13250" data-name="Path 13250" d="M793.574,203.813l-2.08,1.964c0-.615-.017-1.142.014-1.666a.423.423,0,0,1,.3-.284C792.364,203.8,792.925,203.813,793.574,203.813Z" transform="translate(-138.15 -175.456)" fill="#aed4ff"/>
    <path id="Path_13251" data-name="Path 13251" d="M715.136,114.908h-2.272c-.192,0-.393-.008-.392-.262,0-.233.189-.251.372-.251,1.535,0,3.07,0,4.606.006a.486.486,0,0,1,.34.132c.137.169-.02.37-.29.372C716.712,114.912,715.924,114.908,715.136,114.908Z" transform="translate(-63.927 -91.469)"/>
    <path id="Path_13252" data-name="Path 13252" d="M715.167,142.734h-2.3c-.193,0-.392-.014-.382-.27.009-.233.2-.243.38-.243h4.605c.184,0,.367.021.368.255s-.18.258-.365.257Z" transform="translate(-63.936 -117.607)"/>
    <path id="Path_13253" data-name="Path 13253" d="M715.154,87.082h-2.272c-.19,0-.4,0-.393-.259s.214-.252.4-.252c1.525,0,3.049,0,4.574.005a.492.492,0,0,1,.342.13c.138.167-.02.371-.289.372C716.729,87.085,715.942,87.082,715.154,87.082Z" transform="translate(-63.943 -65.332)"/>
    <path id="Path_13254" data-name="Path 13254" d="M714.06,170.069c.414,0,.827,0,1.24,0,.18,0,.334.045.332.259s-.165.251-.34.251h-2.481c-.173,0-.343-.031-.347-.245-.005-.233.169-.266.356-.266C713.233,170.07,713.647,170.069,714.06,170.069Z" transform="translate(-63.919 -143.764)"/>
  </g>
</svg>
