<svg xmlns="http://www.w3.org/2000/svg" width="9.991" height="12.206" viewBox="0 0 9.991 12.206">
  <g id="Group_2613" data-name="Group 2613" transform="translate(954.485 -93.05)">
    <path id="Path_4629" data-name="Path 4629" d="M-943.763,160.817c0-1.04,0-2.081,0-3.121a.54.54,0,0,1,.461-.6.547.547,0,0,1,.643.572c.007.555,0,1.11,0,1.665q0,2.185,0,4.37a1.065,1.065,0,0,0,1.149,1.152q2.172,0,4.343,0A1.068,1.068,0,0,0-936,163.7q0-2.978,0-5.956c0-.414.219-.658.573-.649a.526.526,0,0,1,.525.478c.015.146.008.294.008.442q0,2.835,0,5.67a2.156,2.156,0,0,1-2.282,2.281q-2.146,0-4.291,0a2.158,2.158,0,0,1-2.3-2.289Q-943.764,162.247-943.763,160.817Z" transform="translate(-10.164 -60.711)" fill="#ec0000"/>
    <path id="Path_4630" data-name="Path 4630" d="M-947.264,94.716h1.724c.173,0,.347-.006.52,0a.542.542,0,0,1,.526.537.558.558,0,0,1-.506.562,1.709,1.709,0,0,1-.182,0h-8.607c-.052,0-.1,0-.156,0a.559.559,0,0,1-.54-.556.537.537,0,0,1,.544-.545c.624-.01,1.248,0,1.872,0h.353c0-.317,0-.616,0-.915,0-.575.173-.75.739-.75q1.521,0,3.042,0c.466,0,.665.2.669.664C-947.262,94.035-947.264,94.355-947.264,94.716Zm-3.32-.015h2.184v-.528h-2.184Z" transform="translate(0 0)" fill="#ec0000"/>
    <path id="Path_4631" data-name="Path 4631" d="M-889.4,180.835c0,.615,0,1.23,0,1.845,0,.4-.216.646-.552.645s-.553-.253-.554-.647q0-1.858,0-3.717a.566.566,0,0,1,.542-.632c.337-.008.561.24.563.634C-889.4,179.587-889.4,180.211-889.4,180.835Z" transform="translate(-60.644 -80.841)" fill="#ec0000"/>
    <path id="Path_4632" data-name="Path 4632" d="M-846.659,180.826c0,.641,0,1.282,0,1.923a.558.558,0,0,1-.443.565.54.54,0,0,1-.6-.3.771.771,0,0,1-.057-.3q-.005-1.884,0-3.769a.552.552,0,0,1,.557-.614.565.565,0,0,1,.548.626C-846.657,179.579-846.659,180.2-846.659,180.826Z" transform="translate(-101.165 -80.841)" fill="#ec0000"/>
  </g>
</svg>
