<svg xmlns="http://www.w3.org/2000/svg" width="31.396" height="31.396" viewBox="0 0 31.396 31.396">
  <defs>
    <style>
      .cls-1 {
        fill: #aed4ff;
      }
    </style>
  </defs>
  <g id="ic_report" transform="translate(469.558 972.459)">
    <path id="Path_13385" data-name="Path 13385" d="M-462.2-955.29a6.835,6.835,0,0,1-7.355-6.472A6.855,6.855,0,0,1-462.2-968.8c0-.543,0-1.085,0-1.626a1.865,1.865,0,0,1,2.037-2.031q7.5,0,15-.005a1.141,1.141,0,0,1,.869.362q2.881,2.9,5.778,5.779a1.14,1.14,0,0,1,.353.873q-.009,11.178-.005,22.357a1.864,1.864,0,0,1-2.043,2.024q-9.971,0-19.942,0a1.868,1.868,0,0,1-2.044-2.065q0-5.824,0-11.648Zm16.673-15.912a1.451,1.451,0,0,0-.145-.022l-8.417,0q-3.044,0-6.088,0c-.571,0-.789.223-.794.794-.005.545.008,1.09-.005,1.635-.005.214.07.3.274.371a6.629,6.629,0,0,1,4.543,7.3,6.469,6.469,0,0,1-4.456,5.453.456.456,0,0,0-.363.516q.013,5.966.006,11.933c0,.752.182.931.945.931h19.694c.755,0,.936-.182.936-.94q0-10.707,0-21.414v-.451h-5.121c-.85,0-1.008-.155-1.009-.989q0-1.9,0-3.8Zm-11.846,9.784h-.469q-2.347,0-4.7,0c-.7,0-.888-.195-.889-.9q0-2.348,0-4.7v-.442a5.4,5.4,0,0,0-4.9,5.3,5.507,5.507,0,0,0,5.37,5.641A5.444,5.444,0,0,0-457.37-961.417Zm0-1.247a5.31,5.31,0,0,0-4.8-4.778v4.778Zm16.988-3.659-3.893-3.892v3.892h3.893Z"/>
    <path id="Path_13386" data-name="Path 13386" class="cls-1" d="M-443.464-905.225a5.444,5.444,0,0,1-5.579,4.9,5.507,5.507,0,0,1-5.37-5.641,5.4,5.4,0,0,1,4.9-5.3v.442q0,2.348,0,4.7c0,.708.191.9.889.9q2.348,0,4.7,0Zm-9.725-.44a4.31,4.31,0,0,0,4.12,4.113c.471.009.764-.219.773-.6.008-.358-.254-.59-.709-.628a3.079,3.079,0,0,1-2.959-2.968c-.038-.45-.277-.713-.636-.7C-452.978-906.431-453.2-906.139-453.189-905.665Z" transform="translate(-13.906 -56.192)"/>
    <path id="Path_13387" data-name="Path 13387" class="cls-1" d="M-374.393-906.3h-4.8v-4.778A5.31,5.31,0,0,1-374.393-906.3Z" transform="translate(-82.978 -56.364)"/>
    <path id="Path_13388" data-name="Path 13388" class="cls-1" d="M-156.245-941.116h-3.893v-3.892Z" transform="translate(-284.137 -25.208)"/>
    <path id="Path_13389" data-name="Path 13389" d="M-332.521-769.056c-.365-.182-.59.1-.836.369q-1.79,1.933-3.594,3.854a.427.427,0,0,0-.105.562,1.785,1.785,0,0,1-.492,2.141,1.842,1.842,0,0,1-2.2.122,1.863,1.863,0,0,1-.706-2.129.543.543,0,0,0-.071-.426q-.77-1-1.586-1.974a.625.625,0,0,0-.4-.124,8.474,8.474,0,0,0-1.008-.007.774.774,0,0,0-.475.152c-.589.6-1.143,1.243-1.729,1.851a.611.611,0,0,0-.184.678,1.782,1.782,0,0,1-1.124,2.173,1.807,1.807,0,0,1-2.237-.844,1.734,1.734,0,0,1,.161-1.994,1.721,1.721,0,0,1,1.89-.649.506.506,0,0,0,.59-.182q.859-.958,1.746-1.891a.488.488,0,0,0,.131-.542,1.8,1.8,0,0,1,.69-2.021,1.848,1.848,0,0,1,2.108,0,1.867,1.867,0,0,1,.7,2.065.677.677,0,0,0,.085.507c.494.651,1.009,1.285,1.539,1.907a.669.669,0,0,0,.427.148c.173.013.364-.088.522-.045.432.115.671-.11.932-.4q1.781-1.942,3.591-3.857a.4.4,0,0,0,.1-.527,1.8,1.8,0,0,1,.476-2.149,1.844,1.844,0,0,1,2.2-.135,1.845,1.845,0,0,1,.74,2.044A1.848,1.848,0,0,1-332.521-769.056Zm-6.212,6.122a.593.593,0,0,0,.606-.579.6.6,0,0,0-.569-.616.593.593,0,0,0-.626.6A.593.593,0,0,0-338.733-762.934Zm6.324-7.357a.629.629,0,0,0,.61-.588.626.626,0,0,0-.63-.607.584.584,0,0,0-.575.607A.585.585,0,0,0-332.409-770.29Zm-10.6,2.452a.61.61,0,0,0,.593-.6.611.611,0,0,0-.6-.6.612.612,0,0,0-.614.619A.611.611,0,0,0-343-767.838Zm-4.67,3.708a.613.613,0,0,0-.6.59.61.61,0,0,0,.626.606.611.611,0,0,0,.583-.609A.611.611,0,0,0-347.675-764.13Z" transform="translate(-110.231 -183.418)"/>
    <path id="Path_13390" data-name="Path 13390" d="M-254.088-852.37c1.484,0,2.967-.006,4.451.007a1.088,1.088,0,0,1,.607.171.573.573,0,0,1-.186.987,1.583,1.583,0,0,1-.521.06q-4.349.005-8.7,0c-.082,0-.164,0-.245,0a.63.63,0,0,1-.672-.621.621.621,0,0,1,.691-.6c1.347-.009,2.7,0,4.043,0Z" transform="translate(-193.03 -110.275)"/>
    <path id="Path_13391" data-name="Path 13391" d="M-254.129-821.126h-4.288a3.11,3.11,0,0,1-.326-.006.62.62,0,0,1-.609-.6.62.62,0,0,1,.591-.615,2.729,2.729,0,0,1,.326-.007h8.739c.582,0,.883.218.874.625s-.3.6-.856.6q-1.756,0-3.512,0Z" transform="translate(-193.03 -137.839)"/>
    <path id="Path_13392" data-name="Path 13392" d="M-280.952-926.179c-1.034,0-2.068.005-3.1,0-.467,0-.74-.262-.718-.648.021-.361.286-.574.751-.575,1.565,0,3.13,0,4.695,0,.5,0,1.007-.005,1.51,0,.473.007.758.253.746.629s-.282.592-.738.6C-278.856-926.175-279.9-926.179-280.952-926.179Z" transform="translate(-169.686 -41.369)"/>
    <path id="Path_13393" data-name="Path 13393" d="M-280.89-896.157c-.993,0-1.987,0-2.98,0-.135,0-.314.03-.4-.041a1.273,1.273,0,0,1-.439-.56c-.073-.3.145-.512.439-.591a1.735,1.735,0,0,1,.445-.033q2.939,0,5.879,0a2.834,2.834,0,0,1,.326.007.62.62,0,0,1,.6.611.607.607,0,0,1-.6.6c-.352.023-.707.009-1.061.009Z" transform="translate(-169.735 -68.938)"/>
    <path id="Path_13394" data-name="Path 13394" d="M-289.367-851.66a.635.635,0,0,1,.6-.607.627.627,0,0,1,.616.627.63.63,0,0,1-.616.586A.634.634,0,0,1-289.367-851.66Z" transform="translate(-165.468 -110.372)"/>
    <path id="Path_13395" data-name="Path 13395" d="M-288.739-821.039a.63.63,0,0,1-.614-.588.628.628,0,0,1,.618-.625.633.633,0,0,1,.6.608A.635.635,0,0,1-288.739-821.039Z" transform="translate(-165.48 -137.933)"/>
    <path id="Path_13396" data-name="Path 13396" d="M-439.415-851.48c-.01-.474.21-.766.589-.78.358-.013.6.25.636.7a3.079,3.079,0,0,0,2.959,2.968c.455.038.716.27.709.628-.008.379-.3.606-.773.6A4.31,4.31,0,0,1-439.415-851.48Z" transform="translate(-27.68 -110.377)"/>
    <path id="Path_13397" data-name="Path 13397" class="cls-1" d="M-224.143-666.39a.593.593,0,0,1-.589-.6.593.593,0,0,1,.626-.6.6.6,0,0,1,.569.616A.593.593,0,0,1-224.143-666.39Z" transform="translate(-224.821 -279.962)"/>
    <path id="Path_13398" data-name="Path 13398" class="cls-1" d="M-146.819-756.416a.585.585,0,0,1-.6-.588.584.584,0,0,1,.575-.607.626.626,0,0,1,.63.607A.629.629,0,0,1-146.819-756.416Z" transform="translate(-295.821 -197.293)"/>
    <path id="Path_13399" data-name="Path 13399" class="cls-1" d="M-276.718-726.413a.611.611,0,0,1-.615-.576.612.612,0,0,1,.614-.619.611.611,0,0,1,.6.6A.61.61,0,0,1-276.718-726.413Z" transform="translate(-176.518 -224.843)"/>
    <path id="Path_13400" data-name="Path 13400" class="cls-1" d="M-333.739-667.593a.611.611,0,0,1,.605.587.611.611,0,0,1-.583.609.61.61,0,0,1-.626-.606A.613.613,0,0,1-333.739-667.593Z" transform="translate(-124.167 -279.955)"/>
  </g>
</svg>
