<svg xmlns="http://www.w3.org/2000/svg" width="28.555" height="31.495" viewBox="0 0 28.555 31.495">
  <defs>
    <style>
      .cls-1 {
        fill: #aed4ff;
      }
    </style>
  </defs>
  <g id="Group_3570" data-name="Group 3570" transform="translate(-799.502 36.999)">
    <path id="Path_15823" data-name="Path 15823" d="M804.363-34.573c0-.616,0-1.2,0-1.792a.6.6,0,0,1,.467-.617.994.994,0,0,1,.226-.016h18.808a.615.615,0,0,1,.7.7q0,5.336,0,10.673c0,.07,0,.14,0,.21a.611.611,0,0,1-.893.584,5.1,5.1,0,0,0-2.357-.482,5.064,5.064,0,0,0-4.739,4.106,5.052,5.052,0,0,0,4.2,5.9,5.052,5.052,0,0,0,5.706-4.148,7.331,7.331,0,0,0,.069-.8.625.625,0,0,1,.619-.645.6.6,0,0,1,.608.647,6.172,6.172,0,0,1-3.055,5.339.294.294,0,0,0-.163.289c.007.729.006,1.458,0,2.187-.009,2.329.258,2.067-2.067,2.076h-.351c0,.07-.009.131-.009.192,0,.519,0,1.038,0,1.557a.623.623,0,0,1-.683.686c-.513,0-1.026,0-1.54,0h-.21v.224c0,.507,0,1.015,0,1.522a.611.611,0,0,1-.682.68H800.179a.613.613,0,0,1-.677-.685q0-12.632,0-25.264a.613.613,0,0,1,.679-.684h1.747v-.293c0-.484,0-.968,0-1.452a.628.628,0,0,1,.7-.69c.507,0,1.015,0,1.522,0ZM818.476-30.9H800.741V-6.738h17.734v-.2q0-3.84,0-7.68a.322.322,0,0,0-.175-.316,6.056,6.056,0,0,1-3.029-5.366,6.06,6.06,0,0,1,3.052-5.372.28.28,0,0,0,.152-.276q-.006-2.379,0-4.759Zm4.85,4.59v-9.453H805.6v1.189h15.8a.637.637,0,0,1,.73.726q0,3.542,0,7.084v.219Zm-2.423-.233v-6.789h-17.73v1.193h15.792c.523,0,.74.218.74.746q0,2.44,0,4.881v.206Zm.01,17.371v-.161q0-2.281,0-4.562c0-.029.009-.064,0-.086s-.049-.082-.08-.088c-.369-.071-.74-.134-1.114-.2v5.1Zm2.416-2.426v-2.678l-1.177.232V-11.6Z"/>
    <path id="Path_15824" data-name="Path 15824" d="M1344.941,317.746l.973-.9,4.4-4.079a.63.63,0,0,1,.723-.139.614.614,0,0,1,.345.6.664.664,0,0,1-.241.45q-2.529,2.342-5.055,4.685c-.265.246-.528.494-.8.736a.608.608,0,0,1-.956-.095q-1.2-1.643-2.4-3.293a.613.613,0,1,1,.989-.722c.649.883,1.293,1.77,1.939,2.655C1344.882,317.669,1344.9,317.7,1344.941,317.746Z" transform="translate(-523.327 -337.331)"/>
    <path id="Path_15825" data-name="Path 15825" class="cls-1" d="M991.565,7.8l-1.189-.234V7.35q0-3.542,0-7.084a.637.637,0,0,0-.73-.726h-15.8V-1.65h17.724Z" transform="translate(-168.239 -34.112)"/>
    <path id="Path_15826" data-name="Path 15826" class="cls-1" d="M922.159,74.622l-1.2.237V69.772c0-.528-.217-.746-.74-.746H904.429V67.833h17.73Z" transform="translate(-101.256 -101.164)"/>
    <path id="Path_15827" data-name="Path 15827" class="cls-1" d="M1378.344,617.665h-1.2v-5.1c.374.066.745.13,1.114.2.032.006.062.054.081.088s0,.057,0,.086q0,2.281,0,4.562Z" transform="translate(-557.432 -626.835)"/>
    <path id="Path_15828" data-name="Path 15828" class="cls-1" d="M1447.935,615.062h-1.177v-2.446l1.177-.232Z" transform="translate(-624.607 -626.659)"/>
    <path id="Path_15829" data-name="Path 15829" d="M911.129,261.627q2.641,0,5.281,0a.612.612,0,0,1,.105,1.218,1.611,1.611,0,0,1-.192.006H905.936a1.562,1.562,0,0,1-.227-.01.6.6,0,0,1-.52-.657.592.592,0,0,1,.589-.556c.618-.006,1.236,0,1.854,0Z" transform="translate(-101.988 -288.175)"/>
    <path id="Path_15830" data-name="Path 15830" d="M911,585.411q-2.649,0-5.3,0a.593.593,0,0,1-.593-.4.575.575,0,0,1,.192-.674.9.9,0,0,1,.453-.141c.962-.012,1.924-.006,2.886-.006h7.625a.618.618,0,0,1,.688.606.6.6,0,0,1-.6.617c-.5.005-.991,0-1.487,0Z" transform="translate(-101.874 -599.446)"/>
    <path id="Path_15831" data-name="Path 15831" d="M911.119,691.924q2.65,0,5.3,0a.608.608,0,0,1,.591.841.59.59,0,0,1-.574.383c-.245,0-.49,0-.735,0h-9.846a.615.615,0,0,1-.678-.614.6.6,0,0,1,.626-.61q1.408,0,2.816,0Z" transform="translate(-101.977 -703.415)"/>
    <path id="Path_15832" data-name="Path 15832" d="M910.659,476.748q2.4,0,4.793,0a.611.611,0,0,1,.585.9.6.6,0,0,1-.49.322,1.632,1.632,0,0,1-.192,0q-4.706,0-9.411,0a1.3,1.3,0,0,1-.312-.028.6.6,0,0,1-.445-.662.589.589,0,0,1,.574-.533c.414-.008.828,0,1.242,0Z" transform="translate(-101.983 -495.768)"/>
    <path id="Path_15833" data-name="Path 15833" d="M910.628,370.3q-2.405,0-4.81,0a.613.613,0,0,1-.072-1.223c.064-.005.128,0,.192,0h9.411c.052,0,.105,0,.157,0a.616.616,0,0,1,.595.63.6.6,0,0,1-.61.593c-.665.005-1.329,0-1.994,0Z" transform="translate(-101.973 -391.861)"/>
  </g>
</svg>
