<svg xmlns="http://www.w3.org/2000/svg" width="12.191" height="12.192" viewBox="0 0 12.191 12.192">
  <g id="username" transform="translate(0 0)">
    <path id="Path_2410" data-name="Path 2410" d="M-475.495-743.522l-.174-.161a3.509,3.509,0,0,1-.908-3.977,3.535,3.535,0,0,1,3.459-2.17A3.545,3.545,0,0,1-469.8-746.5a3.511,3.511,0,0,1-3,3.67c-.62.079-1.252.069-1.872.148a6.257,6.257,0,0,0-2.882,1.094,1.987,1.987,0,0,0-.906,1.782c.008.214,0,.428,0,.643,0,.393.175.568.566.568q1.8,0,3.6,0h5.5c.47,0,.629-.156.623-.629a9.985,9.985,0,0,0-.039-1.068,1.584,1.584,0,0,0-.637-1.105,10.546,10.546,0,0,0-1.1-.7c-.309-.175-.436-.4-.319-.666a.475.475,0,0,1,.724-.2,9.922,9.922,0,0,1,1.247.778,2.743,2.743,0,0,1,1.081,2.255c0,.286,0,.571,0,.857a1.421,1.421,0,0,1-1.425,1.423q-4.666.007-9.333,0a1.415,1.415,0,0,1-1.43-1.44,9.584,9.584,0,0,1,.065-1.446,2.624,2.624,0,0,1,.965-1.621,6.643,6.643,0,0,1,2.645-1.3C-475.668-743.472-475.6-743.493-475.495-743.522Zm4.743-2.783a2.575,2.575,0,0,0-2.573-2.575,2.576,2.576,0,0,0-2.569,2.554,2.576,2.576,0,0,0,2.561,2.587A2.576,2.576,0,0,0-470.751-746.305Z" transform="translate(479.415 749.833)"/>
    <path id="Path_2411" data-name="Path 2411" d="M-400.289-727.225a2.576,2.576,0,0,1-2.581,2.567,2.576,2.576,0,0,1-2.561-2.587,2.576,2.576,0,0,1,2.569-2.554A2.575,2.575,0,0,1-400.289-727.225Z" transform="translate(408.953 730.754)" fill="#aed4ff"/>
  </g>
</svg>
