<svg xmlns="http://www.w3.org/2000/svg" width="18.639" height="17.24" viewBox="0 0 18.639 17.24">
  <g id="Group_2951" data-name="Group 2951" transform="translate(1103.561 309.722)">
    <path id="Path_13281" data-name="Path 13281" d="M-947.315-261.8a3.585,3.585,0,0,0-3.585,3.585,3.584,3.584,0,0,0,3.585,3.585,3.585,3.585,0,0,0,3.585-3.585A3.585,3.585,0,0,0-947.315-261.8Zm1.139,3.469c-.25,0-.244,0-.343.226a1.261,1.261,0,0,1-1.161.8c-.075,0-.151,0-.227,0a.272.272,0,0,0-.048.021l1.473,1.483c0,.01-.008.021-.011.032-.213,0-.425,0-.637,0a.2.2,0,0,1-.109-.065q-.652-.65-1.3-1.3a.19.19,0,0,1-.057-.112c-.006-.182,0-.364,0-.568h.163c.245,0,.489,0,.734,0a.743.743,0,0,0,.707-.5h-1.593v-.521h1.584a.7.7,0,0,0-.67-.511c-.254-.006-.508,0-.761,0h-.155v-.506h2.8v.5h-.86c.068.166.129.32.2.471.011.024.064.042.1.042.16,0,.32,0,.481,0,.068,0,.1.023.093.093a.114.114,0,0,0,0,.014C-945.767-258.331-945.767-258.331-946.177-258.331Z" transform="translate(-143.974 -45.195)" fill="#aed4ff"/>
    <path id="Path_13282" data-name="Path 13282" d="M-1100.152-144.35c0,.329,0,.605,0,.881s-.127.4-.405.4q-1.3,0-2.6,0c-.278,0-.4-.126-.4-.406q0-3.351,0-6.7c0-.279.126-.4.405-.4q1.3,0,2.6,0c.278,0,.4.126.4.406,0,.22,0,.441.005.661a.2.2,0,0,0,.012.037c.057-.027.113-.051.166-.08.453-.251.907-.5,1.358-.756a3.068,3.068,0,0,1,2.385-.3q2.22.591,4.437,1.19a1.44,1.44,0,0,1,.848.606l.458-.262q1.733-1,3.466-2a1.361,1.361,0,0,1,1.746.24,1.364,1.364,0,0,1-.337,2.1c-.571.345-1.154.669-1.732,1-2,1.153-4,2.3-5.99,3.463a3.716,3.716,0,0,1-2.005.535q-1.278-.028-2.556,0A3.443,3.443,0,0,1-1100.152-144.35Zm3.43-.079c.5,0,1.008-.007,1.512,0a2.709,2.709,0,0,0,1.438-.386q3.536-2.048,7.077-4.086c.264-.152.533-.3.789-.463a.636.636,0,0,0,.282-.706.645.645,0,0,0-.5-.518.732.732,0,0,0-.585.121q-1.924,1.115-3.851,2.225a.3.3,0,0,0-.177.276,1.285,1.285,0,0,1-1.449,1.221c-1.084-.25-2.158-.543-3.234-.825a.327.327,0,0,1-.253-.407c.044-.207.235-.3.49-.233q1.428.38,2.854.765a.7.7,0,0,0,.761-.184.678.678,0,0,0-.367-1.12q-2.257-.614-4.517-1.215a2.3,2.3,0,0,0-1.733.205q-.926.5-1.84,1.026a.29.29,0,0,0-.116.214q-.011,1.557,0,3.115a.4.4,0,0,0,.109.254,2.336,2.336,0,0,0,1.718.718C-1097.787-144.428-1097.254-144.429-1096.722-144.429Zm-4.122-5.449h-2.019v6.121h2.019Z" transform="translate(0 -149.419)"/>
    <path id="Path_13283" data-name="Path 13283" d="M-955.692-262.6a4.1,4.1,0,0,1-4.086-4.08,4.1,4.1,0,0,1,4.051-4.114,4.1,4.1,0,0,1,4.128,4.1A4.1,4.1,0,0,1-955.692-262.6Zm3.412-4.1a3.414,3.414,0,0,0-3.423-3.41,3.418,3.418,0,0,0-3.393,3.4,3.415,3.415,0,0,0,3.381,3.431A3.412,3.412,0,0,0-952.28-266.7Z" transform="translate(-135.601 -36.717)"/>
    <path id="Path_13284" data-name="Path 13284" d="M-1040.232-133.176c-.532,0-1.065,0-1.6,0a2.336,2.336,0,0,1-1.718-.718.406.406,0,0,1-.109-.254q-.011-1.557,0-3.115a.289.289,0,0,1,.116-.214q.914-.524,1.84-1.026a2.3,2.3,0,0,1,1.733-.205q2.261.6,4.517,1.215a.678.678,0,0,1,.367,1.12.7.7,0,0,1-.761.184q-1.426-.386-2.854-.765c-.255-.068-.446.026-.49.233a.327.327,0,0,0,.253.407c1.077.282,2.15.575,3.234.825a1.285,1.285,0,0,0,1.449-1.221.3.3,0,0,1,.177-.276q1.929-1.107,3.851-2.225a.732.732,0,0,1,.585-.121.645.645,0,0,1,.5.518.636.636,0,0,1-.282.706c-.256.165-.525.311-.789.463q-3.539,2.042-7.077,4.086a2.708,2.708,0,0,1-1.438.386C-1039.223-133.183-1039.728-133.176-1040.232-133.176Z" transform="translate(-56.49 -160.672)" fill="#fff"/>
    <path id="Path_13285" data-name="Path 13285" d="M-1089.275-126.519v6.121h-2.019v-6.121Z" transform="translate(-11.569 -172.779)" fill="#aed4ff"/>
    <path id="Path_13286" data-name="Path 13286" d="M-908.4-223.651c-.212,0-.425,0-.637,0a.2.2,0,0,1-.109-.066q-.652-.65-1.3-1.3a.19.19,0,0,1-.057-.112c-.006-.182,0-.364,0-.568h.163c.245,0,.49,0,.734,0a.743.743,0,0,0,.707-.5h-1.593v-.521h1.584a.7.7,0,0,0-.671-.511c-.253-.006-.507,0-.761,0h-.155v-.506h2.8v.5h-.859c.068.166.128.321.2.471.011.025.064.042.1.043.16,0,.32,0,.48,0,.068,0,.1.023.094.093a.081.081,0,0,0,0,.013c.017.409.017.409-.392.409-.251,0-.244,0-.343.226a1.261,1.261,0,0,1-1.161.8c-.075,0-.151,0-.227,0a.256.256,0,0,0-.049.02l1.473,1.483Z" transform="translate(-182.071 -77.309)"/>
    <path id="Path_13287" data-name="Path 13287" d="M-1068.918-306.984a2.73,2.73,0,0,1-2.745,2.716,2.732,2.732,0,0,1-2.706-2.721,2.73,2.73,0,0,1,2.712-2.732A2.728,2.728,0,0,1-1068.918-306.984Zm-.545,0a2.183,2.183,0,0,0-2.186-2.189,2.188,2.188,0,0,0-2.176,2.165,2.183,2.183,0,0,0,2.161,2.2A2.183,2.183,0,0,0-1069.463-306.988Z" transform="translate(-27.53)"/>
    <path id="Path_13288" data-name="Path 13288" d="M-1060.426-297.95a2.183,2.183,0,0,1-2.2,2.174,2.183,2.183,0,0,1-2.161-2.2,2.188,2.188,0,0,1,2.176-2.165A2.183,2.183,0,0,1-1060.426-297.95Zm-3,.57a.811.811,0,0,0,.269.569.592.592,0,0,1,.277.518.263.263,0,0,0,.264.242.267.267,0,0,0,.276-.247.841.841,0,0,0,0-.187.2.2,0,0,1,.127-.222.8.8,0,0,0,.413-.814.813.813,0,0,0-.626-.684c-.077-.018-.159-.013-.235-.032a.258.258,0,0,1-.22-.281.258.258,0,0,1,.233-.254.27.27,0,0,1,.3.2.823.823,0,0,1,.012.084.276.276,0,0,0,.3.256.277.277,0,0,0,.238-.318.678.678,0,0,0-.271-.546.5.5,0,0,1-.281-.524c.016-.142-.106-.233-.256-.242a.266.266,0,0,0-.276.246.856.856,0,0,0,0,.187.2.2,0,0,1-.127.222.8.8,0,0,0-.414.813.813.813,0,0,0,.625.685c.077.018.158.014.235.032a.258.258,0,0,1,.221.281.258.258,0,0,1-.233.254.27.27,0,0,1-.3-.2.822.822,0,0,1-.011-.084.276.276,0,0,0-.3-.255A.277.277,0,0,0-1063.422-297.38Z" transform="translate(-36.568 -9.038)" fill="#aed4ff"/>
    <path id="Path_13289" data-name="Path 13289" d="M-1040.856-292.832a.277.277,0,0,1,.239-.3.276.276,0,0,1,.3.255.823.823,0,0,0,.012.084.269.269,0,0,0,.3.2.258.258,0,0,0,.233-.254.258.258,0,0,0-.221-.281c-.077-.018-.159-.014-.235-.032a.812.812,0,0,1-.625-.685.8.8,0,0,1,.414-.813.2.2,0,0,0,.127-.222.856.856,0,0,1,0-.187.266.266,0,0,1,.276-.246c.15.009.272.1.256.242a.5.5,0,0,0,.281.524.678.678,0,0,1,.271.546.277.277,0,0,1-.238.318.276.276,0,0,1-.3-.256.76.76,0,0,0-.011-.084.27.27,0,0,0-.3-.2.258.258,0,0,0-.233.254.258.258,0,0,0,.22.281c.076.018.158.013.235.031a.813.813,0,0,1,.626.684.8.8,0,0,1-.413.814.2.2,0,0,0-.127.222.848.848,0,0,1,0,.187.267.267,0,0,1-.276.247.262.262,0,0,1-.263-.242.593.593,0,0,0-.277-.518A.813.813,0,0,1-1040.856-292.832Z" transform="translate(-59.134 -13.586)"/>
  </g>
</svg>
