<svg xmlns="http://www.w3.org/2000/svg" width="19.423" height="15.455" viewBox="0 0 19.423 15.455">
  <g id="Group_2949" data-name="Group 2949" transform="translate(-369.372 -81.779)">
    <path id="Path_13234" data-name="Path 13234" d="M386.02,94.4c0,.459.007.893,0,1.326a1.44,1.44,0,0,1-1.488,1.5q-6.838.011-13.675,0a1.433,1.433,0,0,1-1.475-1.468q-.015-4.284,0-8.568a1.458,1.458,0,0,1,1.415-1.494l.084,0c.344-.025.793.071,1-.111.19-.166.126-.63.164-.964.051-.447.089-.9.137-1.343a1.486,1.486,0,0,1,1.758-1.488q5.257.426,10.512.877c.995.084,1.991.156,2.983.269a1.43,1.43,0,0,1,1.354,1.658c-.171,2.188-.36,4.374-.541,6.561-.043.519-.092,1.037-.126,1.556-.084,1.257-.634,1.742-1.909,1.673A1.548,1.548,0,0,0,386.02,94.4Zm-15.88-3.346c0,1.622-.01,3.181.007,4.74,0,.446.318.668.851.668q6.689,0,13.379,0c.652,0,.881-.235.883-.9,0-1.336-.015-2.673.011-4.009.008-.409-.111-.514-.516-.513-4.713.014-9.426.009-14.138.009Zm15.881,2.5c.937.188,1.266-.007,1.329-.764q.34-4.079.674-8.158c.052-.628-.151-.9-.774-.964-.783-.085-1.569-.139-2.354-.2l-6.812-.571q-2.123-.177-4.247-.353c-.393-.033-.757.076-.825.482-.145.866-.214,1.745-.32,2.667h.571q5.508,0,11.016,0a1.515,1.515,0,0,1,1.74,1.724q0,2.828,0,5.656Zm-.762-3.29c0-.4-.027-.755.007-1.1.039-.391-.122-.462-.479-.461q-7.093.016-14.187.008c-.148,0-.3.013-.439.02V90.27Zm-.039-2.344c.149-1.23-.055-1.467-1.216-1.467H371.218a3.292,3.292,0,0,0-.463.016.656.656,0,0,0-.6.608,7.325,7.325,0,0,0-.006.842Z" fill="#1e1e1e"/>
    <path id="Path_13235" data-name="Path 13235" d="M378.425,191.558h.475c4.713,0,9.426.005,14.138-.009.4,0,.524.1.516.513-.026,1.336-.008,2.673-.011,4.009,0,.66-.231.9-.883.9q-6.689,0-13.379,0c-.533,0-.846-.222-.851-.668C378.415,194.739,378.425,193.18,378.425,191.558Zm11.732,1.12c-.563,0-1.125,0-1.688,0-.363,0-.552.152-.55.527,0,.7.006,1.407,0,2.11,0,.372.171.54.539.539q1.667-.005,3.333,0c.362,0,.552-.15.549-.528q-.008-1.055,0-2.11c0-.37-.167-.543-.538-.539C391.254,192.683,390.706,192.678,390.157,192.678Z" transform="translate(-8.285 -100.5)" fill="#fff"/>
    <path id="Path_13236" data-name="Path 13236" d="M422.024,101.79V101.3q0-2.828,0-5.656a1.515,1.515,0,0,0-1.74-1.724q-5.508,0-11.016,0H408.7c.106-.922.175-1.8.32-2.667.068-.405.432-.515.825-.482q2.123.179,4.247.353l6.812.571c.785.066,1.571.12,2.354.2.622.067.825.336.773.964q-.335,4.079-.674,8.158C423.29,101.782,422.961,101.978,422.024,101.79Z" transform="translate(-36.003 -8.23)" fill="#aed4ff"/>
    <path id="Path_13237" data-name="Path 13237" d="M393.819,165.376h-15.1v-1.535c.142-.007.291-.02.439-.02q7.093,0,14.187-.008c.357,0,.518.071.479.461C393.791,164.621,393.819,164.975,393.819,165.376Z" transform="translate(-8.559 -75.106)" fill="#fff"/>
    <path id="Path_13238" data-name="Path 13238" d="M393.48,138.66H378.4a7.325,7.325,0,0,1,.006-.842.656.656,0,0,1,.6-.608,3.293,3.293,0,0,1,.463-.016h12.787C393.425,137.193,393.629,137.43,393.48,138.66Z" transform="translate(-8.259 -50.734)" fill="#fff"/>
    <path id="Path_13239" data-name="Path 13239" d="M493.116,204.9c.549,0,1.1,0,1.646,0,.371,0,.541.169.538.539q-.009,1.055,0,2.11c0,.378-.187.529-.549.528q-1.667-.007-3.333,0c-.367,0-.542-.167-.539-.539.006-.7,0-1.407,0-2.11,0-.376.186-.532.55-.527C491.99,204.907,492.553,204.9,493.116,204.9Zm-1.456,2.409c.911,0,1.779.006,2.647-.01.077,0,.192-.131.218-.222a1.531,1.531,0,0,0,.011-.419c0-.994,0-.994-.982-.994H491.66Z" transform="translate(-111.244 -112.724)" fill="#1e1e1e"/>
    <path id="Path_13240" data-name="Path 13240" d="M500.143,215.611v-1.645h1.894c.982,0,.983,0,.982.994a1.53,1.53,0,0,1-.011.419c-.027.091-.141.221-.218.222C501.922,215.617,501.054,215.611,500.143,215.611Z" transform="translate(-119.727 -121.024)" fill="#aed4ff"/>
  </g>
</svg>
