<svg xmlns="http://www.w3.org/2000/svg" width="14.648" height="17.31" viewBox="0 0 14.648 17.31">
  <g id="Group_2948" data-name="Group 2948" transform="translate(-736.163 -88.8)">
    <path id="Path_13255" data-name="Path 13255" d="M747.883,92.407v.53q0,6.2,0,12.4c0,.125.007.25,0,.374-.031.334-.227.465-.549.348-.465-.169-.919-.369-1.388-.526a.689.689,0,0,0-.5,0,2.942,2.942,0,0,1-3.182,0,.586.586,0,0,0-.493,0,2.914,2.914,0,0,1-3.146,0,.747.747,0,0,0-.531,0c-.41.133-.8.312-1.207.466-.55.21-.673.131-.708-.457-.013-.224-.017-.449-.017-.674q0-7.06,0-14.12a1.823,1.823,0,0,1,2.007-1.952q5.325,0,10.65,0a1.825,1.825,0,0,1,1.985,1.937c0,.4,0,.8,0,1.2,0,.325-.155.477-.492.473C749.531,92.4,748.744,92.407,747.883,92.407Zm-.738,12.8v-.562c0-4.456,0-8.911.011-13.366,0-.574.109-1.147.168-1.729a1.4,1.4,0,0,0-.179-.014q-4.541,0-9.082,0a1.06,1.06,0,0,0-1.154,1.191q0,7.058,0,14.115c0,.1.016.209.028.354a9.774,9.774,0,0,1,1.067-.406,1.074,1.074,0,0,1,.714.008,2.785,2.785,0,0,0,2.966-.007.974.974,0,0,1,.679-.007,5.687,5.687,0,0,0,1.5.512,5.763,5.763,0,0,0,1.532-.528,1.035,1.035,0,0,1,.576,0C746.339,104.872,746.7,105.032,747.145,105.2Zm.775-13.544h2.136c0-.417.023-.8-.006-1.187a1.084,1.084,0,0,0-2.117-.152A9.411,9.411,0,0,0,747.92,91.66Z" transform="translate(0 0)"/>
    <path id="Path_13256" data-name="Path 13256" d="M756.121,114.229c-.446-.172-.8-.332-1.175-.441a1.027,1.027,0,0,0-.574,0,5.727,5.727,0,0,1-1.526.528,5.651,5.651,0,0,1-1.49-.512.967.967,0,0,0-.676.007,2.766,2.766,0,0,1-2.955.007,1.066,1.066,0,0,0-.711-.008,9.715,9.715,0,0,0-1.063.406c-.012-.146-.028-.25-.028-.354q0-7.058,0-14.115a1.058,1.058,0,0,1,1.15-1.191q4.524-.009,9.048,0a1.388,1.388,0,0,1,.178.014c-.059.583-.166,1.156-.168,1.729-.015,4.455-.01,8.911-.011,13.366Zm-5.5-12.825-.216.064c-.68.2-.951.7-.837,1.545a1.1,1.1,0,0,0,1.14.945,3.2,3.2,0,0,1,.568.011c.154.034.4.134.41.229.031.242.024.667-.093.713a2.274,2.274,0,0,1-1.027.087c-.113-.011-.185-.282-.308-.4s-.269-.244-.4-.24c-.1,0-.271.2-.279.321a.8.8,0,0,0,.153.557,6.767,6.767,0,0,0,.834.644c.106.2.018.581.446.585.458,0,.331-.414.409-.68.07-.017.131-.029.19-.046a1.231,1.231,0,0,0,.856-1.542,1.121,1.121,0,0,0-1.166-.966,2.431,2.431,0,0,1-.567-.012c-.16-.043-.4-.164-.416-.276-.031-.224.005-.62.126-.667a2.18,2.18,0,0,1,.994-.079c.119.013.2.273.323.389s.31.28.42.251.3-.295.268-.4a2.163,2.163,0,0,0-.446-.786,1.775,1.775,0,0,0-.606-.276c-.027-.268.047-.619-.358-.637C750.57,100.716,750.694,101.13,750.623,101.4Zm.422,9.764h-2.317c-.317,0-.633,0-.95,0-.233.007-.433.131-.378.36.034.144.245.252.389.361.04.03.123.006.187.006q3.039,0,6.079,0c.113,0,.257.025.333-.031a.6.6,0,0,0,.259-.357c.006-.1-.148-.24-.264-.311a.7.7,0,0,0-.334-.029Q752.546,111.167,751.045,111.168Zm0-1.8c-1.038,0-2.076,0-3.114,0-.273,0-.541.024-.541.367,0,.321.256.356.514.356h6.229c.259,0,.519-.037.525-.349.006-.335-.259-.375-.536-.374C753.094,109.366,752.068,109.364,751.043,109.363Zm-.053-1.8h-2.811a1.2,1.2,0,0,0-.45.015c-.138.061-.32.21-.325.327s.163.276.293.358c.091.058.246.025.372.025h5.47a2.8,2.8,0,0,0,.717-.019.606.606,0,0,0,.389-.354c.045-.221-.151-.347-.388-.352-.089,0-.177,0-.266,0Z" transform="translate(-9.028 -9.026)" fill="#fff"/>
    <path id="Path_13257" data-name="Path 13257" d="M889.88,100.741a9.577,9.577,0,0,1,.013-1.338,1.008,1.008,0,0,1,1.118-.783,1.023,1.023,0,0,1,.96.934c.029.383.006.77.006,1.187Z" transform="translate(-141.906 -9.081)" fill="#aed4ff"/>
    <path id="Path_13258" data-name="Path 13258" d="M794.595,128.312c.07-.274-.052-.688.413-.667.4.017.326.369.352.637a1.736,1.736,0,0,1,.6.276,2.172,2.172,0,0,1,.439.786c.033.1-.141.365-.263.4s-.293-.138-.414-.251-.2-.377-.318-.389a2.116,2.116,0,0,0-.979.079c-.119.047-.154.444-.124.667.015.112.253.233.41.276a2.356,2.356,0,0,0,.559.012,1.109,1.109,0,0,1,1.148.966c.107.821-.184,1.355-.843,1.542-.059.017-.119.029-.188.046-.076.266.049.685-.4.68-.421,0-.335-.384-.439-.585a6.676,6.676,0,0,1-.822-.644.8.8,0,0,1-.151-.557c.008-.12.174-.317.275-.321.131,0,.286.13.4.24s.192.391.3.4a2.207,2.207,0,0,0,1.011-.087c.115-.047.122-.472.091-.713-.012-.095-.253-.2-.4-.229a3.1,3.1,0,0,0-.56-.011,1.083,1.083,0,0,1-1.123-.945c-.112-.845.155-1.346.824-1.545Z" transform="translate(-52.968 -35.934)"/>
    <path id="Path_13259" data-name="Path 13259" d="M768.814,266.82q1.478,0,2.956,0a.677.677,0,0,1,.329.029c.114.072.266.21.26.311a.6.6,0,0,1-.255.357c-.075.056-.216.031-.328.031q-2.993,0-5.987,0c-.062,0-.144.024-.184-.006-.142-.109-.349-.217-.383-.361-.053-.229.144-.353.373-.36.312-.009.624,0,.935,0Z" transform="translate(-26.792 -164.677)"/>
    <path id="Path_13260" data-name="Path 13260" d="M768.776,242.768c1.01,0,2.02,0,3.03,0,.273,0,.534.039.528.374-.005.312-.262.349-.517.349h-6.135c-.255,0-.507-.036-.506-.356,0-.342.264-.368.533-.367C766.731,242.77,767.754,242.768,768.776,242.768Z" transform="translate(-26.756 -142.43)"/>
    <path id="Path_13261" data-name="Path 13261" d="M768.923,218.629h2.955c.087,0,.175,0,.262,0,.234.005.426.132.382.352a.6.6,0,0,1-.383.354,2.718,2.718,0,0,1-.707.019h-5.387c-.124,0-.276.033-.366-.025-.128-.083-.293-.24-.288-.358s.184-.266.32-.327a1.161,1.161,0,0,1,.443-.015Z" transform="translate(-26.955 -120.088)"/>
  </g>
</svg>
