<svg xmlns="http://www.w3.org/2000/svg" width="14.836" height="14.841" viewBox="0 0 14.836 14.841">
  <g id="Group_3484" data-name="Group 3484" transform="translate(-1792.064 601.091)">
    <path id="Path_15714" data-name="Path 15714" d="M1803.895-586.25a7.019,7.019,0,0,1-3.1-.8,15.244,15.244,0,0,1-3.371-2.365,23.331,23.331,0,0,1-3.522-3.856,9.847,9.847,0,0,1-1.7-3.541,4.828,4.828,0,0,1,0-2.292,1.74,1.74,0,0,1,.784-1.08c.414-.26.834-.509,1.257-.754a.859.859,0,0,1,1.23.278q.982,1.456,1.95,2.921a.877.877,0,0,1-.2,1.25c-.325.263-.659.516-.988.773-.268.21-.293.359-.135.664a11.1,11.1,0,0,0,2.139,2.72,11.513,11.513,0,0,0,2.171,1.786q.24.143.486.276a.411.411,0,0,0,.619-.13c.238-.3.487-.6.708-.917a.956.956,0,0,1,1.424-.237c.917.641,1.859,1.246,2.789,1.868a.872.872,0,0,1,.3,1.283c-.24.411-.487.818-.736,1.224a1.979,1.979,0,0,1-1.606.892C1804.2-586.27,1804-586.258,1803.895-586.25Zm-.1-.509c.116,0,.232.007.347,0a1.679,1.679,0,0,0,1.514-.793c.206-.371.434-.729.651-1.094a.4.4,0,0,0-.135-.625q-1.427-.956-2.858-1.906a.405.405,0,0,0-.648.1c-.255.323-.505.65-.76.974a.888.888,0,0,1-1.256.257,9.78,9.78,0,0,1-2.15-1.557,13.258,13.258,0,0,1-2.842-3.433.891.891,0,0,1,.249-1.258c.314-.247.63-.489.944-.735s.329-.4.111-.721c-.186-.278-.372-.556-.558-.834q-.658-.988-1.316-1.976c-.151-.225-.344-.3-.539-.187-.477.28-.95.566-1.413.867a1.121,1.121,0,0,0-.453.7,4.527,4.527,0,0,0,.064,2.325,9.826,9.826,0,0,0,1.6,3.165,22.589,22.589,0,0,0,3.031,3.367,15.623,15.623,0,0,0,3.578,2.6A6.213,6.213,0,0,0,1803.792-586.759Z"/>
    <path id="Path_15715" data-name="Path 15715" d="M2003.894-549.726a4.678,4.678,0,0,1,4.2,3.281,8.487,8.487,0,0,1,.217,1.345.236.236,0,0,1-.219.3c-.152.017-.254-.09-.277-.28a8.488,8.488,0,0,0-.124-.952,4.172,4.172,0,0,0-3.855-3.2c-.077,0-.155,0-.231-.012a.237.237,0,0,1-.226-.245.222.222,0,0,1,.21-.236A2.419,2.419,0,0,1,2003.894-549.726Z" transform="translate(-203.149 -49.377)"/>
    <path id="Path_15716" data-name="Path 15716" d="M2003.786-511.272a3.212,3.212,0,0,1,3.025,2.817c.011.1.026.2.031.307.009.2-.089.323-.247.324s-.239-.1-.25-.3a2.7,2.7,0,0,0-1.193-2.183,2.48,2.48,0,0,0-1.33-.459,1.932,1.932,0,0,1-.23-.028.224.224,0,0,1-.207-.256.228.228,0,0,1,.247-.22C2003.683-511.273,2003.735-511.272,2003.786-511.272Z" transform="translate(-203.156 -86.349)"/>
    <path id="Path_15717" data-name="Path 15717" d="M2005.314-471.394a.688.688,0,0,1-.1.254.28.28,0,0,1-.24.058.328.328,0,0,1-.157-.19,4.327,4.327,0,0,0-.253-.734,1.134,1.134,0,0,0-.954-.529c-.193-.012-.3-.12-.288-.268s.133-.233.32-.231h.039A1.789,1.789,0,0,1,2005.314-471.394Z" transform="translate(-203.095 -123.11)"/>
    <path id="Path_15718" data-name="Path 15718" d="M1816.08-574.471a6.213,6.213,0,0,1-2.837-.763,15.617,15.617,0,0,1-3.578-2.6,22.58,22.58,0,0,1-3.031-3.367,9.823,9.823,0,0,1-1.6-3.165,4.526,4.526,0,0,1-.064-2.325,1.121,1.121,0,0,1,.454-.7c.463-.3.936-.588,1.413-.867.2-.114.388-.038.539.187q.66.986,1.316,1.975c.185.278.372.556.558.834.217.326.194.483-.112.721s-.631.489-.944.735a.891.891,0,0,0-.25,1.258,13.264,13.264,0,0,0,2.842,3.433,9.783,9.783,0,0,0,2.15,1.557.888.888,0,0,0,1.256-.256c.254-.324.5-.651.76-.974a.405.405,0,0,1,.648-.1q1.43.95,2.857,1.906a.4.4,0,0,1,.135.625c-.218.364-.446.723-.651,1.094a1.678,1.678,0,0,1-1.514.793C1816.312-574.464,1816.2-574.471,1816.08-574.471Z" transform="translate(-12.288 -12.288)" fill="#aed4ff"/>
  </g>
</svg>
