<svg xmlns="http://www.w3.org/2000/svg" width="19.595" height="18.104" viewBox="0 0 19.595 18.104">
  <g id="Group_3483" data-name="Group 3483" transform="translate(-1775.231 439.169)">
    <path id="Path_15707" data-name="Path 15707" d="M1779.877-427.577v-4.432c0-.869.105-1.017.942-1.289,0-.525,0-1.06,0-1.594a4.063,4.063,0,0,1,1.371-3.15,4.025,4.025,0,0,1,4.245-.861,3.94,3.94,0,0,1,2.711,3.171,13.462,13.462,0,0,1,.089,2.135c0,.217.015.348.29.386a.834.834,0,0,1,.651.788c.014.237.007.476,0,.714,0,.189-.091.318-.289.315s-.278-.136-.279-.323,0-.375,0-.561c-.01-.288-.108-.389-.387-.389q-4.2,0-8.394,0c-.266,0-.377.1-.378.371-.005,1.514,0,3.028,0,4.543,0,.134.051.179.18.178.978,0,1.956,0,2.934-.009.062,0,.165-.1.178-.173a5.47,5.47,0,0,0,.1-.859,1.821,1.821,0,0,0-.1-.586,1.39,1.39,0,0,1,.46-1.535,1.372,1.372,0,0,1,1.577-.048,1.282,1.282,0,0,1,.537,1.5,2.246,2.246,0,0,0-.043,1.171c.074.545.085.544.647.544h2.673c.006-.116.014-.206.014-.3q0-1.11,0-2.22,0-.1,0-.2c0-.189.09-.321.285-.318s.282.137.283.324q0,1.1,0,2.195v.52h.317c1,0,2.007,0,3.011,0a1.214,1.214,0,0,1,1.317,1.317q0,1.94,0,3.879a1.21,1.21,0,0,1-1.3,1.307q-6.812,0-13.624,0c-.059,0-.138.019-.175-.011-.09-.075-.228-.179-.221-.261.009-.1.129-.216.229-.282.066-.043.182-.013.275-.013h13.42c.594,0,.832-.238.832-.832q0-1.863,0-3.726c0-.573-.23-.8-.8-.8h-16.865c-.558,0-.8.233-.8.784q0,1.889,0,3.777c0,.546.25.8.788.8.578,0,1.157,0,1.735,0,.278,0,.4.086.387.288-.01.26-.195.281-.4.28-.612,0-1.225,0-1.837,0a1.2,1.2,0,0,1-1.241-1.264q0-1.991,0-3.981a1.2,1.2,0,0,1,1.248-1.257c1.02-.007,2.041,0,3.062,0Zm8.778-5.69c0-.474.013-.915,0-1.356a6.33,6.33,0,0,0-.108-1.212,3.575,3.575,0,0,0-3.389-2.743,3.553,3.553,0,0,0-3.608,2.652,7.816,7.816,0,0,0-.14,1.614c-.019.345,0,.691,0,1.036h1.289c0-.392-.005-.764,0-1.137a7.85,7.85,0,0,1,.042-.889,2.342,2.342,0,0,1,2.08-1.961,2.256,2.256,0,0,1,2.449,1.745,17.906,17.906,0,0,1,.1,1.9c.005.115,0,.23,0,.348Zm-1.881,0c0-.61.014-1.188,0-1.765a1.733,1.733,0,0,0-1.526-1.651,1.727,1.727,0,0,0-1.848,1.135,9.366,9.366,0,0,0-.124,2.281Zm-1.027,5.678c-.027-.276-.047-.536-.081-.794a1.549,1.549,0,0,1,.084-1.012.665.665,0,0,0-.123-.76.781.781,0,0,0-1.014-.16.76.76,0,0,0-.295.959,1.133,1.133,0,0,1,.108.709c-.062.345-.078.7-.115,1.058Z"/>
    <path id="Path_15708" data-name="Path 15708" d="M1982.471-177.263c.267-.154.493-.282.717-.413.177-.1.343-.12.459.08s0,.319-.162.414c-.232.139-.466.274-.728.427.252.146.478.277.7.41.165.1.3.211.189.427-.094.181-.243.2-.477.068s-.439-.247-.7-.4c0,.292,0,.542,0,.792,0,.21-.059.377-.295.4-.183.017-.288-.132-.291-.394s0-.5,0-.8c-.272.154-.5.276-.724.411-.18.109-.35.123-.458-.074s0-.333.181-.432c.229-.125.453-.262.709-.411-.262-.154-.492-.294-.727-.425-.186-.1-.269-.251-.152-.439s.28-.155.446-.056c.223.132.45.258.726.415,0-.3,0-.551,0-.8,0-.208.05-.38.29-.4.176-.015.293.151.3.4S1982.471-177.56,1982.471-177.263Z" transform="translate(-194.947 -247.406)"/>
    <path id="Path_15709" data-name="Path 15709" d="M1896.192-176.043c0,.314,0,.576,0,.838,0,.193-.068.351-.277.356s-.307-.149-.309-.355c0-.262,0-.524,0-.831-.259.146-.484.274-.71.4s-.382.1-.474-.083c-.108-.22.039-.327.2-.422l.7-.4c-.251-.147-.472-.275-.692-.405-.169-.1-.332-.217-.2-.442s.3-.169.482-.058c.209.127.425.244.692.4,0-.319-.005-.6,0-.882,0-.172.1-.322.272-.305.108.011.216.145.3.246.038.048.014.148.015.224,0,.22,0,.44,0,.721a8.444,8.444,0,0,1,.779-.435.4.4,0,0,1,.358.049c.063.056.057.232.026.339-.021.071-.135.12-.214.167-.2.122-.409.238-.654.38l.692.405c.219.129.3.3.194.45-.138.2-.305.159-.486.046C1896.68-175.779,1896.462-175.891,1896.192-176.043Z" transform="translate(-113.072 -247.614)"/>
    <path id="Path_15710" data-name="Path 15710" d="M2068.757-177.265c.265-.152.49-.279.714-.41.173-.1.342-.135.462.067s-.008.335-.173.434c-.225.135-.454.264-.711.413l.7.406c.228.134.295.287.187.45-.13.195-.291.161-.464.056-.217-.131-.439-.253-.71-.408,0,.289.006.537,0,.785a.486.486,0,0,1-.068.286c-.062.069-.21.138-.277.108a.4.4,0,0,1-.209-.269c-.028-.283-.01-.571-.01-.914-.277.156-.511.283-.74.42-.169.1-.323.119-.445-.058-.1-.148-.033-.327.159-.441.232-.137.466-.272.722-.421-.261-.152-.493-.293-.73-.424a.293.293,0,0,1-.157-.423c.1-.192.27-.177.438-.081.234.133.466.267.751.431,0-.309,0-.568,0-.826,0-.2.048-.362.276-.382.179-.016.292.142.294.4S2068.757-177.565,2068.757-177.265Z" transform="translate(-276.843 -247.402)"/>
    <path id="Path_15711" data-name="Path 15711" d="M1809.244-176.529c-.265-.154-.493-.285-.719-.418-.17-.1-.292-.229-.168-.434s.291-.162.464-.061c.218.128.439.253.71.409,0-.3-.009-.554,0-.809a.509.509,0,0,1,.1-.3.289.289,0,0,1,.266-.068.392.392,0,0,1,.19.262c.025.285.009.573.009.921.3-.168.548-.315.8-.453a.259.259,0,0,1,.378.087.277.277,0,0,1-.087.4c-.056.038-.115.072-.174.106l-.613.358c.258.15.49.29.727.42a.3.3,0,0,1,.157.423c-.1.188-.263.185-.435.084-.232-.136-.467-.268-.753-.431,0,.307,0,.565,0,.823,0,.2-.045.362-.275.381-.182.015-.292-.138-.295-.394s0-.5,0-.8c-.265.151-.492.277-.716.409-.175.1-.342.135-.46-.067s0-.333.173-.432Z" transform="translate(-31.387 -247.633)"/>
    <path id="Path_15712" data-name="Path 15712" d="M1903.333-422.275h-1.289c0-.118,0-.233,0-.348a17.907,17.907,0,0,0-.1-1.9,2.256,2.256,0,0,0-2.45-1.745,2.342,2.342,0,0,0-2.079,1.961,7.849,7.849,0,0,0-.042.889c-.007.372,0,.745,0,1.137h-1.289c0-.345-.015-.692,0-1.036a7.816,7.816,0,0,1,.14-1.614,3.553,3.553,0,0,1,3.608-2.652,3.575,3.575,0,0,1,3.389,2.743,6.311,6.311,0,0,1,.108,1.212C1903.346-423.19,1903.333-422.748,1903.333-422.275Z" transform="translate(-114.678 -10.992)" fill="#aed4ff"/>
    <path id="Path_15713" data-name="Path 15713" d="M1953.485-265.17h-1.437c.037-.36.053-.713.115-1.058a1.131,1.131,0,0,0-.108-.709.76.76,0,0,1,.295-.959.781.781,0,0,1,1.014.16.665.665,0,0,1,.123.76,1.55,1.55,0,0,0-.084,1.012C1953.439-265.706,1953.458-265.446,1953.485-265.17Z" transform="translate(-167.738 -162.421)" fill="#aed4ff"/>
  </g>
</svg>
