<svg xmlns="http://www.w3.org/2000/svg" width="12.769" height="13" viewBox="0 0 12.769 13">
  <defs>
    <style>
      .cls-1 {
        fill: #bbd7ff;
      }
    </style>
  </defs>
  <g id="Group_3720" data-name="Group 3720" transform="translate(-6.959 -33.87)">
    <ellipse id="Ellipse_37" data-name="Ellipse 37" class="cls-1" cx="6" cy="6.5" rx="6" ry="6.5" transform="translate(7.728 33.87)"/>
    <g id="Group_3536" data-name="Group 3536" transform="translate(6.959 34.139)">
      <path id="Path_15746" data-name="Path 15746" d="M3146.486-748.747a6.362,6.362,0,0,1-2.945,5.326.467.467,0,0,1-.685-.092.471.471,0,0,1,.174-.684,5.52,5.52,0,0,0,2.316-3.133,5.473,5.473,0,0,0-2.29-6.026,5.418,5.418,0,0,0-2.124-.81.474.474,0,0,1-.463-.533.468.468,0,0,1,.6-.395,6.307,6.307,0,0,1,3.048,1.361,6.342,6.342,0,0,1,2.308,4.14C3146.464-749.325,3146.465-749.051,3146.486-748.747Z" transform="translate(-3133.717 755.105)"/>
      <path id="Path_15747" data-name="Path 15747" d="M2973.431-597.956a6.434,6.434,0,0,1-6.244-5.1,9.7,9.7,0,0,1-.136-1.252.47.47,0,0,1,.462-.535.493.493,0,0,1,.469.517,5.348,5.348,0,0,0,3.379,4.989,5.137,5.137,0,0,0,3.159.3.465.465,0,0,1,.546.233.437.437,0,0,1-.066.521.566.566,0,0,1-.28.156C2974.291-598.055,2973.861-598.009,2973.431-597.956Z" transform="translate(-2967.049 610.687)"/>
      <path id="Path_15748" data-name="Path 15748" d="M2978.45-743.644a.452.452,0,0,1-.425-.638,6.159,6.159,0,0,1,1.541-2.26,6.177,6.177,0,0,1,2.219-1.359.466.466,0,0,1,.636.267.454.454,0,0,1-.308.6,5.457,5.457,0,0,0-2.819,2.3c-.158.258-.281.538-.414.811A.457.457,0,0,1,2978.45-743.644Z" transform="translate(-2977.562 748.217)"/>
    </g>
  </g>
</svg>
