<svg xmlns="http://www.w3.org/2000/svg" width="15.134" height="19.132" viewBox="0 0 15.134 19.132">
  <g id="Group_3481" data-name="Group 3481" transform="translate(-1210.154 366.229)">
    <path id="Path_15704" data-name="Path 15704" d="M1218.06-173.231a11.38,11.38,0,0,1-7.65-2.759.657.657,0,0,1-.255-.581,7.507,7.507,0,0,1,4.2-6.6.475.475,0,0,1,.624.1,4.087,4.087,0,0,0,2.279,1.175,3.641,3.641,0,0,0,2.746-.773,5.4,5.4,0,0,0,.509-.437.443.443,0,0,1,.565-.075,7.445,7.445,0,0,1,4.068,5.336,9.066,9.066,0,0,1,.141,1.38.583.583,0,0,1-.176.406,10.707,10.707,0,0,1-5.3,2.616C1219.131-173.323,1218.435-173.276,1218.06-173.231Zm-.17-.706c.239-.022.652-.052,1.063-.1a10.292,10.292,0,0,0,5.314-2.223.709.709,0,0,0,.3-.728,6.837,6.837,0,0,0-3.444-5.375.308.308,0,0,0-.43.041,4.492,4.492,0,0,1-2.792,1.157,4.453,4.453,0,0,1-3.159-1.173c-.138-.119-.243-.144-.388-.035a14.909,14.909,0,0,0-1.332.993,6.689,6.689,0,0,0-2.15,4.665.433.433,0,0,0,.15.3A10.538,10.538,0,0,0,1217.89-173.937Z" transform="translate(0 -173.866)"/>
    <path id="Path_15705" data-name="Path 15705" d="M1275.234-361.875a4.335,4.335,0,0,1,4.535-4.35,4.338,4.338,0,0,1,4.084,3.69,5.941,5.941,0,0,1-.99,4.015,5,5,0,0,1-1.721,1.762,3,3,0,0,1-3.643-.349,6.412,6.412,0,0,1-2.217-4.051c-.02-.122-.037-.246-.045-.369S1275.234-361.759,1275.234-361.875Zm.695.262a5.8,5.8,0,0,0,1.86,3.82,2.416,2.416,0,0,0,3.541.016,5.618,5.618,0,0,0,1.477-2.21,4.712,4.712,0,0,0,.35-2.451,3.615,3.615,0,0,0-3.78-3.073A3.688,3.688,0,0,0,1275.929-361.614Z" transform="translate(-61.838 0)"/>
    <path id="Path_15706" data-name="Path 15706" d="M1289.237-348.056a3.688,3.688,0,0,1,3.449-3.9,3.615,3.615,0,0,1,3.78,3.073,4.712,4.712,0,0,1-.35,2.451,5.618,5.618,0,0,1-1.477,2.21,2.416,2.416,0,0,1-3.541-.016A5.8,5.8,0,0,1,1289.237-348.056Z" transform="translate(-75.146 -13.558)" fill="#aed4ff"/>
  </g>
</svg>
